<svg class="grail-fig" viewBox="0 0 600 281" width="600" height="281" xmlns="http://www.w3.org/2000/svg" role="img" aria-label="postgresql 13 and python 3.10 lifetimes over the glibc, zstd and openssl eras; the window where every era agrees ends 2022-06-26, where the coherent plan pins python 3.10.4">
<style>
  .grail-fig { font-family: "JetBrains Mono", ui-monospace, Menlo, Consolas, monospace; }
  .grail-fig text { font-size: 12px; fill: #565046; }
  .grail-fig .head { font-size: 13px; font-weight: 600; fill: #1a1815; }
  .grail-fig .grid { stroke: #dcd5c5; stroke-width: 1; }
  .grail-fig .hit { fill: #2a78d6; }
  .grail-fig .era { fill: #6f685b; opacity: .35; }
  .grail-fig .era.odd { opacity: .55; }
  .grail-fig .etext { fill: #3f3a31; font-size: 11px; }
  .grail-fig .win { fill: #cf5d28; opacity: .16; }
  .grail-fig .wtext { fill: #cf5d28; font-size: 12px; }
  .grail-fig .pin { fill: #cf5d28; stroke: #f6f1e5; stroke-width: 1.5; }
  .grail-fig .free { fill: none; stroke: #6f685b; stroke-width: 2; }
  .grail-fig .arrow { stroke: #cf5d28; stroke-width: 1.4; fill: none; }
</style>
<line class="grid" x1="92.0" y1="68" x2="92.0" y2="251"/>
<text x="92.0" y="267" text-anchor="middle">2022-01</text>
<line class="grid" x1="216.0" y1="68" x2="216.0" y2="251"/>
<text x="216.0" y="267" text-anchor="middle">2022-07</text>
<line class="grid" x1="342.0" y1="68" x2="342.0" y2="251"/>
<text x="342.0" y="267" text-anchor="middle">2023-01</text>
<line class="grid" x1="466.0" y1="68" x2="466.0" y2="251"/>
<text x="466.0" y="267" text-anchor="middle">2023-07</text>
<line class="grid" x1="592.0" y1="68" x2="592.0" y2="251"/>
<text x="592.0" y="267" text-anchor="end">2024-01</text>
<rect class="win" x="179.7" y="68" width="32.9" height="183"/>
<text class="wtext" x="220.5" y="150">every era agrees: 2022-05-09 → 2022-06-26</text>
<text class="wtext" x="220.5" y="166">(openssl 1.1.1o is the wall)</text>
<rect class="hit" x="92" y="20" width="18" height="7" rx="3.5"/>
<text x="116" y="28">requested attr lifetime</text>
<rect class="era odd" x="342" y="18" width="18" height="11"/>
<text x="366" y="28">library eras</text>
<text class="head" x="84" y="87" text-anchor="end">postgresql</text>
<rect class="hit" x="92.0" y="78" width="95.2" height="9" rx="3.5"/>
<text class="head" x="84" y="113" text-anchor="end">python3</text>
<rect class="hit" x="207.8" y="104" width="333.6" height="9" rx="3.5"/>
<circle class="free" cx="541.3" cy="108.5" r="4"/>
<circle class="pin" cx="212.5" cy="108.5" r="4.5"/>
<path class="arrow" d="M 541.3 102.5 C 541.3 64.0, 212.5 64.0, 214.5 101.5" marker-end="url(#tip)"/>
<defs><marker id="tip" markerWidth="7" markerHeight="7" refX="5" refY="3.5" orient="auto"><path d="M0,0 L7,3.5 L0,7 z" fill="#cf5d28"/></marker></defs>
<text class="wtext" x="376.9" y="58.0" text-anchor="middle">--one zstd --one openssl retreats python 16 months</text>
<text x="212.5" y="128.5" text-anchor="middle">3.10.4 (r793)</text>
<text x="541.3" y="128.5" text-anchor="middle">3.10.12 (r1128)</text>
<text class="head" x="84" y="190" text-anchor="end">glibc</text>
<rect class="era" x="92.0" y="176" width="63.0" height="17"/>
<text class="etext" x="123.5" y="190" text-anchor="middle">2.33</text>
<rect class="era odd" x="157.1" y="176" width="81.5" height="17"/>
<text class="etext" x="197.8" y="190" text-anchor="middle">2.34</text>
<rect class="era" x="238.6" y="176" width="171.9" height="17"/>
<text class="etext" x="324.5" y="190" text-anchor="middle">2.35</text>
<rect class="era odd" x="411.2" y="176" width="130.1" height="17"/>
<text class="etext" x="476.2" y="190" text-anchor="middle">2.37</text>
<rect class="era" x="544.7" y="176" width="47.3" height="17"/>
<text class="head" x="84" y="216" text-anchor="end">zstd</text>
<rect class="era" x="92.0" y="202" width="15.8" height="17"/>
<rect class="era odd" x="108.4" y="202" width="10.3" height="17"/>
<rect class="era" x="119.4" y="202" width="260.3" height="17"/>
<text class="etext" x="249.5" y="216" text-anchor="middle">1.5.2</text>
<rect class="era odd" x="380.4" y="202" width="39.7" height="17"/>
<rect class="era" x="420.8" y="202" width="171.2" height="17"/>
<text class="etext" x="506.4" y="216" text-anchor="middle">1.5.5</text>
<text class="head" x="84" y="242" text-anchor="end">openssl</text>
<rect class="era" x="92.0" y="228" width="4.1" height="17"/>
<rect class="era odd" x="97.5" y="228" width="43.8" height="17"/>
<rect class="era" x="145.4" y="228" width="31.5" height="17"/>
<rect class="era odd" x="179.7" y="228" width="32.9" height="17"/>
<rect class="era" x="213.2" y="228" width="14.4" height="17"/>
<rect class="era odd" x="228.3" y="228" width="37.7" height="17"/>
<rect class="era" x="266.7" y="228" width="32.9" height="17"/>
<rect class="era odd" x="300.9" y="228" width="69.9" height="17"/>
<text class="etext" x="335.8" y="242" text-anchor="middle">3.0.7</text>
<rect class="era" x="371.5" y="228" width="76.0" height="17"/>
<text class="etext" x="409.5" y="242" text-anchor="middle">3.0.8</text>
<rect class="era odd" x="448.2" y="228" width="51.4" height="17"/>
<text class="etext" x="473.8" y="242" text-anchor="middle">3.0.9</text>
<rect class="era" x="500.9" y="228" width="40.4" height="17"/>
<rect class="era odd" x="544.7" y="228" width="14.4" height="17"/>
<rect class="era" x="561.2" y="228" width="30.8" height="17"/>
</svg>
