<svg version="1.1" viewBox="0.0 0.0 600.0 371.0" fill="none" stroke="none" stroke-linecap="square" stroke-miterlimit="10" width="600" height="371" xmlns:xlink="http://www.w3.org/1999/xlink" xmlns="http://www.w3.org/2000/svg"><path fill="#ffffff" d="M0 0L600.0 0L600.0 371.0L0 371.0L0 0Z" fill-rule="nonzero"/><path stroke="#333333" stroke-width="1.0" stroke-linecap="butt" d="M45.5 332.5L581.5 332.5" fill-rule="nonzero"/><path stroke="#cccccc" stroke-width="1.0" stroke-linecap="butt" d="M45.5 283.5L581.5 283.5" fill-rule="nonzero"/><path stroke="#cccccc" stroke-width="1.0" stroke-linecap="butt" d="M45.5 234.5L581.5 234.5" fill-rule="nonzero"/><path stroke="#cccccc" stroke-width="1.0" stroke-linecap="butt" d="M45.5 185.5L581.5 185.5" fill-rule="nonzero"/><path stroke="#cccccc" stroke-width="1.0" stroke-linecap="butt" d="M45.5 137.5L581.5 137.5" fill-rule="nonzero"/><path stroke="#cccccc" stroke-width="1.0" stroke-linecap="butt" d="M45.5 88.5L581.5 88.5" fill-rule="nonzero"/><clipPath id="id_0"><path d="M45.55 88.28333L581.45 88.28333L581.45 332.45L45.55 332.45L45.55 88.28333Z" clip-rule="nonzero"/></clipPath><path stroke="#5891ad" stroke-width="2.0" stroke-linecap="butt" clip-path="url(#id_0)" d="M134.86667 330.2316L313.5 307.8862L492.13333 124.52675" fill-rule="nonzero"/><path stroke="#004561" stroke-width="2.0" stroke-linecap="butt" clip-path="url(#id_0)" d="M134.86667 331.54672L313.5 321.53897L492.13333 222.71095" fill-rule="nonzero"/><path fill="#000000" fill-opacity="0.0" clip-path="url(#id_0)" d="M137.86667 330.2316C137.86667 331.88846 136.52351 333.2316 134.86667 333.2316C133.20981 333.2316 131.86667 331.88846 131.86667 330.2316C131.86667 328.57474 133.20981 327.2316 134.86667 327.2316C136.52351 327.2316 137.86667 328.57474 137.86667 330.2316Z" fill-rule="nonzero"/><path fill="#000000" fill-opacity="0.0" clip-path="url(#id_0)" d="M316.5 307.8862C316.5 309.54306 315.15686 310.8862 313.5 310.8862C311.84314 310.8862 310.5 309.54306 310.5 307.8862C310.5 306.22934 311.84314 304.8862 313.5 304.8862C315.15686 304.8862 316.5 306.22934 316.5 307.8862Z" fill-rule="nonzero"/><path fill="#000000" fill-opacity="0.0" clip-path="url(#id_0)" d="M495.13333 124.52675C495.13333 126.1836 493.7902 127.52675 492.13333 127.52675C490.47647 127.52675 489.13333 126.1836 489.13333 124.52675C489.13333 122.869896 490.47647 121.52675 492.13333 121.52675C493.7902 121.52675 495.13333 122.869896 495.13333 124.52675Z" fill-rule="nonzero"/><path fill="#000000" fill-opacity="0.0" clip-path="url(#id_0)" d="M137.86667 331.54672C137.86667 333.20358 136.52351 334.54672 134.86667 334.54672C133.20981 334.54672 131.86667 333.20358 131.86667 331.54672C131.86667 329.88986 133.20981 328.54672 134.86667 328.54672C136.52351 328.54672 137.86667 329.88986 137.86667 331.54672Z" fill-rule="nonzero"/><path fill="#000000" fill-opacity="0.0" clip-path="url(#id_0)" d="M316.5 321.53897C316.5 323.19583 315.15686 324.53897 313.5 324.53897C311.84314 324.53897 310.5 323.19583 310.5 321.53897C310.5 319.8821 311.84314 318.53897 313.5 318.53897C315.15686 318.53897 316.5 319.8821 316.5 321.53897Z" fill-rule="nonzero"/><path fill="#000000" fill-opacity="0.0" clip-path="url(#id_0)" d="M495.13333 222.71095C495.13333 224.36781 493.7902 225.71095 492.13333 225.71095C490.47647 225.71095 489.13333 224.36781 489.13333 222.71095C489.13333 221.0541 490.47647 219.71095 492.13333 219.71095C493.7902 219.71095 495.13333 221.0541 495.13333 222.71095Z" fill-rule="nonzero"/><path fill="#000000" d="M33.05 332.21564Q33.05 330.6844 33.3625 329.7625Q33.675 328.825 34.284374 328.325Q34.909374 327.825 35.846874 327.825Q36.534374 327.825 37.05 328.10626Q37.58125 328.3875 37.925 328.91876Q38.26875 329.4344 38.45625 330.1844Q38.64375 330.9344 38.64375 332.21564Q38.64375 333.73126 38.33125 334.65314Q38.034374 335.575 37.409374 336.09064Q36.8 336.59064 35.846874 336.59064Q34.6125 336.59064 33.89375 335.7Q33.05 334.6375 33.05 332.21564ZM34.128124 332.21564Q34.128124 334.325 34.628124 335.02814Q35.128124 335.73126 35.846874 335.73126Q36.58125 335.73126 37.065624 335.02814Q37.565624 334.325 37.565624 332.21564Q37.565624 330.09064 37.065624 329.40314Q36.58125 328.7 35.83125 328.7Q35.1125 328.7 34.675 329.3094Q34.128124 330.09064 34.128124 332.21564Z" fill-rule="nonzero"/><path fill="#000000" d="M37.01875 287.61667L35.971874 287.61667L35.971874 280.89792Q35.58125 281.2573 34.95625 281.6323Q34.346874 281.99167 33.8625 282.16354L33.8625 281.14792Q34.7375 280.72604 35.39375 280.14792Q36.065624 279.55417 36.346874 278.99167L37.01875 278.99167L37.01875 287.61667Z" fill-rule="nonzero"/><path fill="#000000" d="M38.596874 237.76772L38.596874 238.78334L32.909374 238.78334Q32.909374 238.40834 33.034374 238.04897Q33.253124 237.47084 33.721874 236.90834Q34.20625 236.34584 35.1125 235.61147Q36.51875 234.45522 37.003124 233.78334Q37.503124 233.11147 37.503124 232.51772Q37.503124 231.89272 37.05 231.47084Q36.596874 231.03334 35.878124 231.03334Q35.1125 231.03334 34.659374 231.48647Q34.20625 231.93959 34.190624 232.75209L33.1125 232.64272Q33.221874 231.42397 33.940624 230.79897Q34.675 230.15834 35.909374 230.15834Q37.14375 230.15834 37.8625 230.84584Q38.58125 231.53334 38.58125 232.54897Q38.58125 233.06459 38.3625 233.56459Q38.159374 234.04897 37.659374 234.61147Q37.175 235.15834 36.05 236.11147Q35.096874 236.90834 34.815624 237.20522Q34.55 237.48647 34.378124 237.76772L38.596874 237.76772Z" fill-rule="nonzero"/><path fill="#000000" d="M33.05 187.68437L34.1125 187.54375Q34.284374 188.43437 34.721874 188.84062Q35.159374 189.23125 35.784374 189.23125Q36.534374 189.23125 37.05 188.71562Q37.565624 188.2 37.565624 187.43437Q37.565624 186.71562 37.08125 186.24687Q36.6125 185.7625 35.878124 185.7625Q35.58125 185.7625 35.128124 185.8875L35.253124 184.95Q35.3625 184.96562 35.425 184.96562Q36.096874 184.96562 36.628124 184.62187Q37.175 184.2625 37.175 183.52812Q37.175 182.95 36.784374 182.575Q36.39375 182.18437 35.76875 182.18437Q35.159374 182.18437 34.7375 182.575Q34.33125 182.96562 34.221874 183.73125L33.159374 183.54375Q33.346874 182.49687 34.034374 181.91875Q34.721874 181.325 35.7375 181.325Q36.440624 181.325 37.034374 181.6375Q37.628124 181.93437 37.940624 182.45Q38.253124 182.96562 38.253124 183.55937Q38.253124 184.10625 37.95625 184.575Q37.659374 185.02812 37.08125 185.29375Q37.83125 185.46562 38.253124 186.02812Q38.675 186.575 38.675 187.41875Q38.675 188.54375 37.846874 189.325Q37.034374 190.10625 35.784374 190.10625Q34.659374 190.10625 33.909374 189.43437Q33.159374 188.74687 33.05 187.68437Z" fill-rule="nonzero"/><path fill="#000000" d="M36.425 141.11667L36.425 139.05417L32.70625 139.05417L32.70625 138.08542L36.628124 132.52292L37.4875 132.52292L37.4875 138.08542L38.64375 138.08542L38.64375 139.05417L37.4875 139.05417L37.4875 141.11667L36.425 141.11667ZM36.425 138.08542L36.425 134.22604L33.7375 138.08542L36.425 138.08542Z" fill-rule="nonzero"/><path fill="#000000" d="M33.05 90.03333L34.159374 89.93958Q34.284374 90.75208 34.721874 91.15833Q35.175 91.56458 35.815624 91.56458Q36.565624 91.56458 37.096874 90.98646Q37.628124 90.40833 37.628124 89.47083Q37.628124 88.56458 37.1125 88.04896Q36.6125 87.51771 35.784374 87.51771Q35.284374 87.51771 34.8625 87.75208Q34.45625 87.98646 34.221874 88.34583L33.2375 88.22083L34.065624 83.81458L38.346874 83.81458L38.346874 84.81458L34.909374 84.81458L34.45625 87.12708Q35.221874 86.58021 36.065624 86.58021Q37.190624 86.58021 37.95625 87.36146Q38.7375 88.14271 38.7375 89.37708Q38.7375 90.53333 38.065624 91.39271Q37.2375 92.42396 35.815624 92.42396Q34.64375 92.42396 33.89375 91.76771Q33.159374 91.11146 33.05 90.03333Z" fill-rule="nonzero"/><path fill="#000000" d="M118.33542 349.45L117.28854 349.45L117.28854 342.73126Q116.89792 343.09064 116.27292 343.46564Q115.66354 343.825 115.17917 343.9969L115.17917 342.98126Q116.05417 342.5594 116.71042 341.98126Q117.38229 341.3875 117.66354 340.825L118.33542 340.825L118.33542 349.45ZM121.36667 345.21564Q121.36667 343.6844 121.67917 342.7625Q121.99167 341.825 122.60104 341.325Q123.22604 340.825 124.16354 340.825Q124.85104 340.825 125.36667 341.10626Q125.89792 341.3875 126.24167 341.91876Q126.58542 342.4344 126.77292 343.1844Q126.96042 343.9344 126.96042 345.21564Q126.96042 346.73126 126.64792 347.65314Q126.35104 348.575 125.72604 349.09064Q125.11667 349.59064 124.16354 349.59064Q122.92917 349.59064 122.21042 348.7Q121.36667 347.6375 121.36667 345.21564ZM122.44479 345.21564Q122.44479 347.325 122.94479 348.02814Q123.44479 348.73126 124.16354 348.73126Q124.89792 348.73126 125.38229 348.02814Q125.88229 347.325 125.88229 345.21564Q125.88229 343.09064 125.38229 342.40314Q124.89792 341.7 124.14792 341.7Q123.42917 341.7 122.99167 342.3094Q122.44479 343.09064 122.44479 345.21564ZM127.67917 351.84064L127.67917 351.075L134.67917 351.075L134.67917 351.84064L127.67917 351.84064ZM135.36667 345.21564Q135.36667 343.6844 135.67917 342.7625Q135.99167 341.825 136.60104 341.325Q137.22604 340.825 138.16354 340.825Q138.85104 340.825 139.36667 341.10626Q139.89792 341.3875 140.24167 341.91876Q140.58542 342.4344 140.77292 343.1844Q140.96042 343.9344 140.96042 345.21564Q140.96042 346.73126 140.64792 347.65314Q140.35104 348.575 139.72604 349.09064Q139.11667 349.59064 138.16354 349.59064Q136.92917 349.59064 136.21042 348.7Q135.36667 347.6375 135.36667 345.21564ZM136.4448 345.21564Q136.4448 347.325 136.9448 348.02814Q137.4448 348.73126 138.16354 348.73126Q138.89792 348.73126 139.3823 348.02814Q139.8823 347.325 139.8823 345.21564Q139.8823 343.09064 139.3823 342.40314Q138.89792 341.7 138.14792 341.7Q137.42917 341.7 136.99167 342.3094Q136.4448 343.09064 136.4448 345.21564ZM142.36667 345.21564Q142.36667 343.6844 142.67917 342.7625Q142.99167 341.825 143.60104 341.325Q144.22604 340.825 145.16354 340.825Q145.85104 340.825 146.36667 341.10626Q146.89792 341.3875 147.24167 341.91876Q147.58542 342.4344 147.77292 343.1844Q147.96042 343.9344 147.96042 345.21564Q147.96042 346.73126 147.64792 347.65314Q147.35104 348.575 146.72604 349.09064Q146.11667 349.59064 145.16354 349.59064Q143.92917 349.59064 143.21042 348.7Q142.36667 347.6375 142.36667 345.21564ZM143.4448 345.21564Q143.4448 347.325 143.9448 348.02814Q144.4448 348.73126 145.16354 348.73126Q145.89792 348.73126 146.3823 348.02814Q146.8823 347.325 146.8823 345.21564Q146.8823 343.09064 146.3823 342.40314Q145.89792 341.7 145.14792 341.7Q144.42917 341.7 143.99167 342.3094Q143.4448 343.09064 143.4448 345.21564ZM149.36667 345.21564Q149.36667 343.6844 149.67917 342.7625Q149.99167 341.825 150.60104 341.325Q151.22604 340.825 152.16354 340.825Q152.85104 340.825 153.36667 341.10626Q153.89792 341.3875 154.24167 341.91876Q154.58542 342.4344 154.77292 343.1844Q154.96042 343.9344 154.96042 345.21564Q154.96042 346.73126 154.64792 347.65314Q154.35104 348.575 153.72604 349.09064Q153.11667 349.59064 152.16354 349.59064Q150.92917 349.59064 150.21042 348.7Q149.36667 347.6375 149.36667 345.21564ZM150.4448 345.21564Q150.4448 347.325 150.9448 348.02814Q151.4448 348.73126 152.16354 348.73126Q152.89792 348.73126 153.3823 348.02814Q153.8823 347.325 153.8823 345.21564Q153.8823 343.09064 153.3823 342.40314Q152.89792 341.7 152.14792 341.7Q151.42917 341.7 150.99167 342.3094Q150.4448 343.09064 150.4448 345.21564Z" fill-rule="nonzero"/><path fill="#000000" d="M293.46875 349.45L292.42188 349.45L292.42188 342.73126Q292.03125 343.09064 291.40625 343.46564Q290.79688 343.825 290.3125 343.9969L290.3125 342.98126Q291.1875 342.5594 291.84375 341.98126Q292.51562 341.3875 292.79688 340.825L293.46875 340.825L293.46875 349.45ZM296.5 345.21564Q296.5 343.6844 296.8125 342.7625Q297.125 341.825 297.73438 341.325Q298.35938 340.825 299.29688 340.825Q299.98438 340.825 300.5 341.10626Q301.03125 341.3875 301.375 341.91876Q301.71875 342.4344 301.90625 343.1844Q302.09375 343.9344 302.09375 345.21564Q302.09375 346.73126 301.78125 347.65314Q301.48438 348.575 300.85938 349.09064Q300.25 349.59064 299.29688 349.59064Q298.0625 349.59064 297.34375 348.7Q296.5 347.6375 296.5 345.21564ZM297.57812 345.21564Q297.57812 347.325 298.07812 348.02814Q298.57812 348.73126 299.29688 348.73126Q300.03125 348.73126 300.51562 348.02814Q301.01562 347.325 301.01562 345.21564Q301.01562 343.09064 300.51562 342.40314Q300.03125 341.7 299.28125 341.7Q298.5625 341.7 298.125 342.3094Q297.57812 343.09064 297.57812 345.21564ZM303.5 345.21564Q303.5 343.6844 303.8125 342.7625Q304.125 341.825 304.73438 341.325Q305.35938 340.825 306.29688 340.825Q306.98438 340.825 307.5 341.10626Q308.03125 341.3875 308.375 341.91876Q308.71875 342.4344 308.90625 343.1844Q309.09375 343.9344 309.09375 345.21564Q309.09375 346.73126 308.78125 347.65314Q308.48438 348.575 307.85938 349.09064Q307.25 349.59064 306.29688 349.59064Q305.0625 349.59064 304.34375 348.7Q303.5 347.6375 303.5 345.21564ZM304.57812 345.21564Q304.57812 347.325 305.07812 348.02814Q305.57812 348.73126 306.29688 348.73126Q307.03125 348.73126 307.51562 348.02814Q308.01562 347.325 308.01562 345.21564Q308.01562 343.09064 307.51562 342.40314Q307.03125 341.7 306.28125 341.7Q305.5625 341.7 305.125 342.3094Q304.57812 343.09064 304.57812 345.21564ZM309.8125 351.84064L309.8125 351.075L316.8125 351.075L316.8125 351.84064L309.8125 351.84064ZM317.5 345.21564Q317.5 343.6844 317.8125 342.7625Q318.125 341.825 318.73438 341.325Q319.35938 340.825 320.29688 340.825Q320.98438 340.825 321.5 341.10626Q322.03125 341.3875 322.375 341.91876Q322.71875 342.4344 322.90625 343.1844Q323.09375 343.9344 323.09375 345.21564Q323.09375 346.73126 322.78125 347.65314Q322.48438 348.575 321.85938 349.09064Q321.25 349.59064 320.29688 349.59064Q319.0625 349.59064 318.34375 348.7Q317.5 347.6375 317.5 345.21564ZM318.57812 345.21564Q318.57812 347.325 319.07812 348.02814Q319.57812 348.73126 320.29688 348.73126Q321.03125 348.73126 321.51562 348.02814Q322.01562 347.325 322.01562 345.21564Q322.01562 343.09064 321.51562 342.40314Q321.03125 341.7 320.28125 341.7Q319.5625 341.7 319.125 342.3094Q318.57812 343.09064 318.57812 345.21564ZM324.5 345.21564Q324.5 343.6844 324.8125 342.7625Q325.125 341.825 325.73438 341.325Q326.35938 340.825 327.29688 340.825Q327.98438 340.825 328.5 341.10626Q329.03125 341.3875 329.375 341.91876Q329.71875 342.4344 329.90625 343.1844Q330.09375 343.9344 330.09375 345.21564Q330.09375 346.73126 329.78125 347.65314Q329.48438 348.575 328.85938 349.09064Q328.25 349.59064 327.29688 349.59064Q326.0625 349.59064 325.34375 348.7Q324.5 347.6375 324.5 345.21564ZM325.57812 345.21564Q325.57812 347.325 326.07812 348.02814Q326.57812 348.73126 327.29688 348.73126Q328.03125 348.73126 328.51562 348.02814Q329.01562 347.325 329.01562 345.21564Q329.01562 343.09064 328.51562 342.40314Q328.03125 341.7 327.28125 341.7Q326.5625 341.7 326.125 342.3094Q325.57812 343.09064 325.57812 345.21564ZM331.5 345.21564Q331.5 343.6844 331.8125 342.7625Q332.125 341.825 332.73438 341.325Q333.35938 340.825 334.29688 340.825Q334.98438 340.825 335.5 341.10626Q336.03125 341.3875 336.375 341.91876Q336.71875 342.4344 336.90625 343.1844Q337.09375 343.9344 337.09375 345.21564Q337.09375 346.73126 336.78125 347.65314Q336.48438 348.575 335.85938 349.09064Q335.25 349.59064 334.29688 349.59064Q333.0625 349.59064 332.34375 348.7Q331.5 347.6375 331.5 345.21564ZM332.57812 345.21564Q332.57812 347.325 333.07812 348.02814Q333.57812 348.73126 334.29688 348.73126Q335.03125 348.73126 335.51562 348.02814Q336.01562 347.325 336.01562 345.21564Q336.01562 343.09064 335.51562 342.40314Q335.03125 341.7 334.28125 341.7Q333.5625 341.7 333.125 342.3094Q332.57812 343.09064 332.57812 345.21564Z" fill-rule="nonzero"/><path fill="#000000" d="M465.10208 349.45L464.0552 349.45L464.0552 342.73126Q463.66458 343.09064 463.03958 343.46564Q462.4302 343.825 461.94583 343.9969L461.94583 342.98126Q462.82083 342.5594 463.47708 341.98126Q464.14896 341.3875 464.4302 340.825L465.10208 340.825L465.10208 349.45ZM467.44583 351.84064L467.44583 351.075L474.44583 351.075L474.44583 351.84064L467.44583 351.84064ZM475.13333 345.21564Q475.13333 343.6844 475.44583 342.7625Q475.75833 341.825 476.3677 341.325Q476.9927 340.825 477.9302 340.825Q478.6177 340.825 479.13333 341.10626Q479.66458 341.3875 480.00833 341.91876Q480.35208 342.4344 480.53958 343.1844Q480.72708 343.9344 480.72708 345.21564Q480.72708 346.73126 480.41458 347.65314Q480.1177 348.575 479.4927 349.09064Q478.88333 349.59064 477.9302 349.59064Q476.69583 349.59064 475.97708 348.7Q475.13333 347.6375 475.13333 345.21564ZM476.21146 345.21564Q476.21146 347.325 476.71146 348.02814Q477.21146 348.73126 477.9302 348.73126Q478.66458 348.73126 479.14896 348.02814Q479.64896 347.325 479.64896 345.21564Q479.64896 343.09064 479.14896 342.40314Q478.66458 341.7 477.91458 341.7Q477.19583 341.7 476.75833 342.3094Q476.21146 343.09064 476.21146 345.21564ZM482.13333 345.21564Q482.13333 343.6844 482.44583 342.7625Q482.75833 341.825 483.3677 341.325Q483.9927 340.825 484.9302 340.825Q485.6177 340.825 486.13333 341.10626Q486.66458 341.3875 487.00833 341.91876Q487.35208 342.4344 487.53958 343.1844Q487.72708 343.9344 487.72708 345.21564Q487.72708 346.73126 487.41458 347.65314Q487.1177 348.575 486.4927 349.09064Q485.88333 349.59064 484.9302 349.59064Q483.69583 349.59064 482.97708 348.7Q482.13333 347.6375 482.13333 345.21564ZM483.21146 345.21564Q483.21146 347.325 483.71146 348.02814Q484.21146 348.73126 484.9302 348.73126Q485.66458 348.73126 486.14896 348.02814Q486.64896 347.325 486.64896 345.21564Q486.64896 343.09064 486.14896 342.40314Q485.66458 341.7 484.91458 341.7Q484.19583 341.7 483.75833 342.3094Q483.21146 343.09064 483.21146 345.21564ZM489.13333 345.21564Q489.13333 343.6844 489.44583 342.7625Q489.75833 341.825 490.3677 341.325Q490.9927 340.825 491.9302 340.825Q492.6177 340.825 493.13333 341.10626Q493.66458 341.3875 494.00833 341.91876Q494.35208 342.4344 494.53958 343.1844Q494.72708 343.9344 494.72708 345.21564Q494.72708 346.73126 494.41458 347.65314Q494.1177 348.575 493.4927 349.09064Q492.88333 349.59064 491.9302 349.59064Q490.69583 349.59064 489.97708 348.7Q489.13333 347.6375 489.13333 345.21564ZM490.21146 345.21564Q490.21146 347.325 490.71146 348.02814Q491.21146 348.73126 491.9302 348.73126Q492.66458 348.73126 493.14896 348.02814Q493.64896 347.325 493.64896 345.21564Q493.64896 343.09064 493.14896 342.40314Q492.66458 341.7 491.91458 341.7Q491.19583 341.7 490.75833 342.3094Q490.21146 343.09064 490.21146 345.21564ZM495.44583 351.84064L495.44583 351.075L502.44583 351.075L502.44583 351.84064L495.44583 351.84064ZM503.13333 345.21564Q503.13333 343.6844 503.44583 342.7625Q503.75833 341.825 504.3677 341.325Q504.9927 340.825 505.9302 340.825Q506.6177 340.825 507.13333 341.10626Q507.66458 341.3875 508.00833 341.91876Q508.35208 342.4344 508.53958 343.1844Q508.72708 343.9344 508.72708 345.21564Q508.72708 346.73126 508.41458 347.65314Q508.1177 348.575 507.4927 349.09064Q506.88333 349.59064 505.9302 349.59064Q504.69583 349.59064 503.97708 348.7Q503.13333 347.6375 503.13333 345.21564ZM504.21146 345.21564Q504.21146 347.325 504.71146 348.02814Q505.21146 348.73126 505.9302 348.73126Q506.66458 348.73126 507.14896 348.02814Q507.64896 347.325 507.64896 345.21564Q507.64896 343.09064 507.14896 342.40314Q506.66458 341.7 505.91458 341.7Q505.19583 341.7 504.75833 342.3094Q504.21146 343.09064 504.21146 345.21564ZM510.13333 345.21564Q510.13333 343.6844 510.44583 342.7625Q510.75833 341.825 511.3677 341.325Q511.9927 340.825 512.9302 340.825Q513.6177 340.825 514.1333 341.10626Q514.66455 341.3875 515.0083 341.91876Q515.35205 342.4344 515.53955 343.1844Q515.72705 343.9344 515.72705 345.21564Q515.72705 346.73126 515.41455 347.65314Q515.1177 348.575 514.4927 349.09064Q513.8833 349.59064 512.9302 349.59064Q511.69583 349.59064 510.97708 348.7Q510.13333 347.6375 510.13333 345.21564ZM511.21146 345.21564Q511.21146 347.325 511.71146 348.02814Q512.2114 348.73126 512.9302 348.73126Q513.66455 348.73126 514.1489 348.02814Q514.6489 347.325 514.6489 345.21564Q514.6489 343.09064 514.1489 342.40314Q513.66455 341.7 512.91455 341.7Q512.1958 341.7 511.75833 342.3094Q511.21146 343.09064 511.21146 345.21564ZM517.1333 345.21564Q517.1333 343.6844 517.4458 342.7625Q517.7583 341.825 518.3677 341.325Q518.9927 340.825 519.9302 340.825Q520.6177 340.825 521.1333 341.10626Q521.66455 341.3875 522.0083 341.91876Q522.35205 342.4344 522.53955 343.1844Q522.72705 343.9344 522.72705 345.21564Q522.72705 346.73126 522.41455 347.65314Q522.1177 348.575 521.4927 349.09064Q520.8833 349.59064 519.9302 349.59064Q518.6958 349.59064 517.97705 348.7Q517.1333 347.6375 517.1333 345.21564ZM518.2114 345.21564Q518.2114 347.325 518.7114 348.02814Q519.2114 348.73126 519.9302 348.73126Q520.66455 348.73126 521.1489 348.02814Q521.6489 347.325 521.6489 345.21564Q521.6489 343.09064 521.1489 342.40314Q520.66455 341.7 519.91455 341.7Q519.1958 341.7 518.7583 342.3094Q518.2114 343.09064 518.2114 345.21564Z" fill-rule="nonzero"/><path stroke="#5891ad" stroke-width="4.0" stroke-linecap="butt" d="M219.5 61.916668L231.5 61.916668" fill-rule="nonzero"/><path fill="#1a1a1a" d="M244.32812 65.916664L244.32812 65.135414Q243.73438 66.05729 242.59375 66.05729Q241.84375 66.05729 241.21875 65.65104Q240.59375 65.229164 240.25 64.49479Q239.90625 63.760414 239.90625 62.80729Q239.90625 61.885414 240.21875 61.11979Q240.53125 60.354164 241.15625 59.96354Q241.78125 59.55729 242.54688 59.55729Q243.10938 59.55729 243.54688 59.791664Q243.98438 60.02604 244.26562 60.40104L244.26562 57.322914L245.3125 57.322914L245.3125 65.916664L244.32812 65.916664ZM241.0 62.80729Q241.0 64.010414 241.5 64.604164Q242.0 65.18229 242.6875 65.18229Q243.375 65.18229 243.85938 64.61979Q244.34375 64.05729 244.34375 62.90104Q244.34375 61.61979 243.84375 61.02604Q243.35938 60.43229 242.64062 60.43229Q241.9375 60.43229 241.46875 61.010414Q241.0 61.572914 241.0 62.80729ZM246.90625 62.80729Q246.90625 61.072914 247.85938 60.24479Q248.65625 59.55729 249.8125 59.55729Q251.09375 59.55729 251.90625 60.40104Q252.73438 61.229164 252.73438 62.71354Q252.73438 63.916664 252.375 64.604164Q252.01562 65.291664 251.3125 65.68229Q250.625 66.05729 249.8125 66.05729Q248.51562 66.05729 247.70312 65.229164Q246.90625 64.385414 246.90625 62.80729ZM247.98438 62.80729Q247.98438 63.99479 248.5 64.58854Q249.03125 65.18229 249.8125 65.18229Q250.60938 65.18229 251.125 64.58854Q251.64062 63.99479 251.64062 62.77604Q251.64062 61.61979 251.10938 61.02604Q250.59375 60.43229 249.8125 60.43229Q249.03125 60.43229 248.5 61.02604Q247.98438 61.604164 247.98438 62.80729ZM253.3125 68.30729L253.3125 67.541664L260.3125 67.541664L260.3125 68.30729L253.3125 68.30729ZM261.28125 65.916664L261.28125 59.697914L262.23438 59.697914L262.23438 60.635414Q262.59375 59.979164 262.89062 59.77604Q263.20312 59.55729 263.57812 59.55729Q264.10938 59.55729 264.65625 59.885414L264.29688 60.86979Q263.90625 60.635414 263.53125 60.635414Q263.17188 60.635414 262.89062 60.854164Q262.625 61.05729 262.51562 61.43229Q262.32812 61.99479 262.32812 62.65104L262.32812 65.916664L261.28125 65.916664ZM269.54688 63.916664L270.64062 64.041664Q270.39062 64.99479 269.6875 65.52604Q268.98438 66.05729 267.90625 66.05729Q266.54688 66.05729 265.73438 65.21354Q264.9375 64.36979 264.9375 62.854164Q264.9375 61.291664 265.75 60.43229Q266.5625 59.55729 267.84375 59.55729Q269.09375 59.55729 269.875 60.40104Q270.67188 61.24479 270.67188 62.791664Q270.67188 62.885414 270.67188 63.072914L266.03125 63.072914Q266.09375 64.104164 266.60938 64.65104Q267.125 65.18229 267.90625 65.18229Q268.48438 65.18229 268.89062 64.885414Q269.3125 64.572914 269.54688 63.916664ZM266.09375 62.21354L269.5625 62.21354Q269.5 61.416664 269.17188 61.02604Q268.65625 60.416664 267.85938 60.416664Q267.125 60.416664 266.625 60.90104Q266.14062 61.385414 266.09375 62.21354ZM272.26562 65.916664L272.26562 57.322914L273.32812 57.322914L273.32812 65.916664L272.26562 65.916664ZM274.90625 62.80729Q274.90625 61.072914 275.85938 60.24479Q276.65625 59.55729 277.8125 59.55729Q279.09375 59.55729 279.90625 60.40104Q280.73438 61.229164 280.73438 62.71354Q280.73438 63.916664 280.375 64.604164Q280.01562 65.291664 279.3125 65.68229Q278.625 66.05729 277.8125 66.05729Q276.51562 66.05729 275.70312 65.229164Q274.90625 64.385414 274.90625 62.80729ZM275.98438 62.80729Q275.98438 63.99479 276.5 64.58854Q277.03125 65.18229 277.8125 65.18229Q278.60938 65.18229 279.125 64.58854Q279.64062 63.99479 279.64062 62.77604Q279.64062 61.61979 279.10938 61.02604Q278.59375 60.43229 277.8125 60.43229Q277.03125 60.43229 276.5 61.02604Q275.98438 61.604164 275.98438 62.80729ZM286.35938 63.635414L287.39062 63.77604Q287.21875 64.83854 286.51562 65.447914Q285.8125 66.05729 284.79688 66.05729Q283.51562 66.05729 282.73438 65.229164Q281.96875 64.385414 281.96875 62.822914Q281.96875 61.822914 282.29688 61.072914Q282.64062 60.30729 283.3125 59.93229Q284.0 59.55729 284.8125 59.55729Q285.8125 59.55729 286.45312 60.072914Q287.10938 60.572914 287.29688 61.52604L286.26562 61.68229Q286.125 61.05729 285.75 60.74479Q285.375 60.416664 284.84375 60.416664Q284.04688 60.416664 283.54688 60.99479Q283.04688 61.55729 283.04688 62.791664Q283.04688 64.05729 283.53125 64.61979Q284.01562 65.18229 284.78125 65.18229Q285.40625 65.18229 285.8125 64.80729Q286.23438 64.43229 286.35938 63.635414ZM287.875 64.05729L288.90625 63.90104Q289.0 64.52604 289.39062 64.854164Q289.79688 65.18229 290.53125 65.18229Q291.25 65.18229 291.59375 64.90104Q291.95312 64.604164 291.95312 64.197914Q291.95312 63.83854 291.64062 63.635414Q291.42188 63.49479 290.5625 63.27604Q289.40625 62.979164 288.95312 62.77604Q288.51562 62.55729 288.28125 62.18229Q288.04688 61.80729 288.04688 61.33854Q288.04688 60.93229 288.23438 60.572914Q288.42188 60.21354 288.75 59.979164Q289.0 59.80729 289.42188 59.68229Q289.84375 59.55729 290.34375 59.55729Q291.0625 59.55729 291.60938 59.77604Q292.17188 59.979164 292.4375 60.33854Q292.70312 60.697914 292.79688 61.291664L291.76562 61.43229Q291.70312 60.96354 291.35938 60.697914Q291.03125 60.416664 290.40625 60.416664Q289.6875 60.416664 289.375 60.666664Q289.0625 60.90104 289.0625 61.229164Q289.0625 61.43229 289.1875 61.58854Q289.32812 61.760414 289.59375 61.86979Q289.75 61.93229 290.53125 62.135414Q291.65625 62.447914 292.09375 62.635414Q292.53125 62.822914 292.78125 63.18229Q293.03125 63.541664 293.03125 64.08854Q293.03125 64.61979 292.71875 65.08854Q292.42188 65.541664 291.84375 65.80729Q291.26562 66.05729 290.53125 66.05729Q289.3125 66.05729 288.67188 65.55729Q288.04688 65.041664 287.875 64.05729Z" fill-rule="nonzero"/><path stroke="#004561" stroke-width="4.0" stroke-linecap="butt" d="M310.5 61.916668L322.5 61.916668" fill-rule="nonzero"/><path fill="#1a1a1a" d="M331.54688 65.916664L331.54688 60.510414L330.60938 60.510414L330.60938 59.697914L331.54688 59.697914L331.54688 59.02604Q331.54688 58.40104 331.65625 58.104164Q331.8125 57.68229 332.1875 57.43229Q332.57812 57.18229 333.26562 57.18229Q333.71875 57.18229 334.25 57.291664L334.09375 58.197914Q333.76562 58.15104 333.46875 58.15104Q332.98438 58.15104 332.78125 58.354164Q332.59375 58.55729 332.59375 59.11979L332.59375 59.697914L333.8125 59.697914L333.8125 60.510414L332.59375 60.510414L332.59375 65.916664L331.54688 65.916664ZM334.29688 58.541664L334.29688 57.322914L335.35938 57.322914L335.35938 58.541664L334.29688 58.541664ZM334.29688 65.916664L334.29688 59.697914L335.35938 59.697914L335.35938 65.916664L334.29688 65.916664ZM337.29688 65.916664L337.29688 59.697914L338.23438 59.697914L338.23438 60.572914Q338.92188 59.55729 340.21875 59.55729Q340.78125 59.55729 341.25 59.760414Q341.73438 59.96354 341.96875 60.291664Q342.20312 60.61979 342.29688 61.05729Q342.34375 61.354164 342.34375 62.08854L342.34375 65.916664L341.29688 65.916664L341.29688 62.135414Q341.29688 61.479164 341.17188 61.166664Q341.04688 60.854164 340.73438 60.666664Q340.42188 60.46354 340.0 60.46354Q339.32812 60.46354 338.82812 60.90104Q338.34375 61.322914 338.34375 62.510414L338.34375 65.916664L337.29688 65.916664ZM348.32812 65.916664L348.32812 65.135414Q347.73438 66.05729 346.59375 66.05729Q345.84375 66.05729 345.21875 65.65104Q344.59375 65.229164 344.25 64.49479Q343.90625 63.760414 343.90625 62.80729Q343.90625 61.885414 344.21875 61.11979Q344.53125 60.354164 345.15625 59.96354Q345.78125 59.55729 346.54688 59.55729Q347.10938 59.55729 347.54688 59.791664Q347.98438 60.02604 348.26562 60.40104L348.26562 57.322914L349.3125 57.322914L349.3125 65.916664L348.32812 65.916664ZM345.0 62.80729Q345.0 64.010414 345.5 64.604164Q346.0 65.18229 346.6875 65.18229Q347.375 65.18229 347.85938 64.61979Q348.34375 64.05729 348.34375 62.90104Q348.34375 61.61979 347.84375 61.02604Q347.35938 60.43229 346.64062 60.43229Q345.9375 60.43229 345.46875 61.010414Q345.0 61.572914 345.0 62.80729ZM350.3125 68.30729L350.3125 67.541664L357.3125 67.541664L357.3125 68.30729L350.3125 68.30729ZM357.875 64.05729L358.90625 63.90104Q359.0 64.52604 359.39062 64.854164Q359.79688 65.18229 360.53125 65.18229Q361.25 65.18229 361.59375 64.90104Q361.95312 64.604164 361.95312 64.197914Q361.95312 63.83854 361.64062 63.635414Q361.42188 63.49479 360.5625 63.27604Q359.40625 62.979164 358.95312 62.77604Q358.51562 62.55729 358.28125 62.18229Q358.04688 61.80729 358.04688 61.33854Q358.04688 60.93229 358.23438 60.572914Q358.42188 60.21354 358.75 59.979164Q359.0 59.80729 359.42188 59.68229Q359.84375 59.55729 360.34375 59.55729Q361.0625 59.55729 361.60938 59.77604Q362.17188 59.979164 362.4375 60.33854Q362.70312 60.697914 362.79688 61.291664L361.76562 61.43229Q361.70312 60.96354 361.35938 60.697914Q361.03125 60.416664 360.40625 60.416664Q359.6875 60.416664 359.375 60.666664Q359.0625 60.90104 359.0625 61.229164Q359.0625 61.43229 359.1875 61.58854Q359.32812 61.760414 359.59375 61.86979Q359.75 61.93229 360.53125 62.135414Q361.65625 62.447914 362.09375 62.635414Q362.53125 62.822914 362.78125 63.18229Q363.03125 63.541664 363.03125 64.08854Q363.03125 64.61979 362.71875 65.08854Q362.42188 65.541664 361.84375 65.80729Q361.26562 66.05729 360.53125 66.05729Q359.3125 66.05729 358.67188 65.55729Q358.04688 65.041664 357.875 64.05729ZM365.25 68.30729L365.125 67.322914Q365.46875 67.416664 365.73438 67.416664Q366.07812 67.416664 366.28125 67.291664Q366.5 67.18229 366.64062 66.979164Q366.73438 66.80729 366.96875 66.18229Q366.98438 66.104164 367.0625 65.93229L364.6875 59.697914L365.82812 59.697914L367.125 63.291664Q367.375 63.979164 367.57812 64.74479Q367.76562 64.010414 368.01562 63.322914L369.34375 59.697914L370.39062 59.697914L368.03125 66.02604Q367.64062 67.041664 367.4375 67.43229Q367.15625 67.96354 366.78125 68.197914Q366.42188 68.447914 365.92188 68.447914Q365.625 68.447914 365.25 68.30729ZM370.29688 65.916664L370.29688 59.697914L371.23438 59.697914L371.23438 60.572914Q371.53125 60.104164 372.01562 59.83854Q372.5 59.55729 373.125 59.55729Q373.8125 59.55729 374.25 59.83854Q374.70312 60.11979 374.875 60.635414Q375.625 59.55729 376.79688 59.55729Q377.73438 59.55729 378.21875 60.072914Q378.71875 60.572914 378.71875 61.65104L378.71875 65.916664L377.67188 65.916664L377.67188 61.99479Q377.67188 61.36979 377.5625 61.08854Q377.46875 60.80729 377.20312 60.635414Q376.9375 60.46354 376.5625 60.46354Q375.90625 60.46354 375.46875 60.90104Q375.04688 61.33854 375.04688 62.30729L375.04688 65.916664L373.98438 65.916664L373.98438 61.86979Q373.98438 61.166664 373.71875 60.822914Q373.46875 60.46354 372.89062 60.46354Q372.4375 60.46354 372.0625 60.697914Q371.6875 60.93229 371.51562 61.385414Q371.34375 61.83854 371.34375 62.68229L371.34375 65.916664L370.29688 65.916664Z" fill-rule="nonzero"/><path fill="#757575" d="M20.128124 37.55L20.128124 23.2375L26.471874 23.2375Q28.378124 23.2375 29.378124 23.628124Q30.378124 24.003124 30.971874 24.9875Q31.565624 25.95625 31.565624 27.14375Q31.565624 28.659374 30.58125 29.70625Q29.596874 30.753124 27.534374 31.034374Q28.284374 31.39375 28.675 31.753124Q29.503124 32.503124 30.253124 33.659374L32.7375 37.55L30.3625 37.55L28.45625 34.565624Q27.628124 33.284374 27.096874 32.596874Q26.565624 31.909374 26.128124 31.64375Q25.70625 31.3625 25.26875 31.253124Q24.940624 31.190624 24.221874 31.190624L22.01875 31.190624L22.01875 37.55L20.128124 37.55ZM22.01875 29.55L26.096874 29.55Q27.39375 29.55 28.1125 29.284374Q28.846874 29.01875 29.221874 28.425Q29.6125 27.83125 29.6125 27.14375Q29.6125 26.128124 28.878124 25.471874Q28.14375 24.815624 26.55 24.815624L22.01875 24.815624L22.01875 29.55ZM40.971874 34.20625L42.784374 34.440624Q42.3625 36.01875 41.190624 36.909374Q40.034374 37.784374 38.221874 37.784374Q35.95625 37.784374 34.6125 36.39375Q33.284374 34.9875 33.284374 32.45625Q33.284374 29.83125 34.628124 28.39375Q35.971874 26.940624 38.128124 26.940624Q40.20625 26.940624 41.51875 28.3625Q42.846874 29.76875 42.846874 32.346874Q42.846874 32.503124 42.83125 32.815624L35.096874 32.815624Q35.190624 34.51875 36.065624 35.425Q36.940624 36.33125 38.2375 36.33125Q39.20625 36.33125 39.878124 35.83125Q40.565624 35.315624 40.971874 34.20625ZM35.190624 31.3625L40.9875 31.3625Q40.878124 30.065624 40.33125 29.409374Q39.4875 28.39375 38.14375 28.39375Q36.940624 28.39375 36.1125 29.20625Q35.284374 30.003124 35.190624 31.3625ZM44.83125 37.55L44.83125 23.2375L46.58125 23.2375L46.58125 37.55L44.83125 37.55ZM48.221874 32.3625Q48.221874 29.4875 49.815624 28.096874Q51.159374 26.940624 53.08125 26.940624Q55.221874 26.940624 56.565624 28.346874Q57.925 29.753124 57.925 32.221874Q57.925 34.221874 57.33125 35.378124Q56.7375 36.51875 55.58125 37.159374Q54.440624 37.784374 53.08125 37.784374Q50.89375 37.784374 49.55 36.39375Q48.221874 34.9875 48.221874 32.3625ZM50.01875 32.3625Q50.01875 34.3625 50.878124 35.346874Q51.753124 36.33125 53.08125 36.33125Q54.39375 36.33125 55.253124 35.346874Q56.128124 34.346874 56.128124 32.3Q56.128124 30.378124 55.253124 29.39375Q54.378124 28.39375 53.08125 28.39375Q51.753124 28.39375 50.878124 29.39375Q50.01875 30.378124 50.01875 32.3625ZM66.64375 33.753124L68.3625 33.971874Q68.08125 35.76875 66.90938 36.784374Q65.75313 37.784374 64.05 37.784374Q61.925 37.784374 60.628124 36.39375Q59.33125 35.003124 59.33125 32.409374Q59.33125 30.721874 59.878124 29.471874Q60.440624 28.20625 61.58125 27.58125Q62.721874 26.940624 64.06563 26.940624Q65.75313 26.940624 66.81563 27.8Q67.89375 28.659374 68.20625 30.221874L66.4875 30.4875Q66.25313 29.440624 65.62813 28.925Q65.00313 28.39375 64.12813 28.39375Q62.8 28.39375 61.971874 29.346874Q61.14375 30.3 61.14375 32.346874Q61.14375 34.440624 61.940624 35.39375Q62.7375 36.33125 64.03438 36.33125Q65.06563 36.33125 65.75313 35.70625Q66.45625 35.065624 66.64375 33.753124ZM76.64375 36.26875Q75.65938 37.096874 74.75313 37.440624Q73.84688 37.784374 72.81563 37.784374Q71.1125 37.784374 70.19063 36.95625Q69.26875 36.1125 69.26875 34.815624Q69.26875 34.05 69.6125 33.425Q69.97188 32.8 70.53438 32.425Q71.09688 32.034374 71.8 31.83125Q72.31563 31.70625 73.3625 31.565624Q75.4875 31.315624 76.4875 30.971874Q76.50313 30.6125 76.50313 30.503124Q76.50313 29.440624 76.00313 28.9875Q75.33125 28.39375 74.00313 28.39375Q72.75313 28.39375 72.15938 28.83125Q71.58125 29.26875 71.3 30.378124L69.58125 30.14375Q69.81563 29.034374 70.34688 28.3625Q70.87813 27.675 71.89375 27.315624Q72.90938 26.940624 74.25313 26.940624Q75.58125 26.940624 76.40938 27.253124Q77.2375 27.565624 77.62813 28.05Q78.01875 28.51875 78.175 29.2375Q78.26875 29.690624 78.26875 30.8625L78.26875 33.20625Q78.26875 35.659374 78.37813 36.315624Q78.4875 36.95625 78.83125 37.55L76.9875 37.55Q76.72188 37.003124 76.64375 36.26875ZM76.4875 32.346874Q75.53438 32.7375 73.6125 33.003124Q72.53438 33.159374 72.08125 33.3625Q71.64375 33.55 71.39375 33.925Q71.14375 34.3 71.14375 34.76875Q71.14375 35.471874 71.675 35.940624Q72.20625 36.409374 73.2375 36.409374Q74.25313 36.409374 75.03438 35.971874Q75.83125 35.51875 76.20625 34.753124Q76.4875 34.14375 76.4875 32.9875L76.4875 32.346874ZM84.70625 35.971874L84.95625 37.534374Q84.22188 37.690624 83.62813 37.690624Q82.675 37.690624 82.14375 37.39375Q81.62813 37.08125 81.40938 36.596874Q81.19063 36.096874 81.19063 34.51875L81.19063 28.55L79.90938 28.55L79.90938 27.175L81.19063 27.175L81.19063 24.6125L82.94063 23.55L82.94063 27.175L84.70625 27.175L84.70625 28.55L82.94063 28.55L82.94063 34.6125Q82.94063 35.3625 83.03438 35.58125Q83.12813 35.784374 83.33125 35.925Q83.55 36.05 83.94063 36.05Q84.22188 36.05 84.70625 35.971874ZM86.87813 25.253124L86.87813 23.2375L88.64375 23.2375L88.64375 25.253124L86.87813 25.253124ZM86.87813 37.55L86.87813 27.175L88.64375 27.175L88.64375 37.55L86.87813 37.55ZM90.22188 32.3625Q90.22188 29.4875 91.81563 28.096874Q93.15938 26.940624 95.08125 26.940624Q97.22188 26.940624 98.56563 28.346874Q99.925 29.753124 99.925 32.221874Q99.925 34.221874 99.33125 35.378124Q98.7375 36.51875 97.58125 37.159374Q96.44063 37.784374 95.08125 37.784374Q92.89375 37.784374 91.55 36.39375Q90.22188 34.9875 90.22188 32.3625ZM92.01875 32.3625Q92.01875 34.3625 92.87813 35.346874Q93.75313 36.33125 95.08125 36.33125Q96.39375 36.33125 97.25313 35.346874Q98.12813 34.346874 98.12813 32.3Q98.12813 30.378124 97.25313 29.39375Q96.37813 28.39375 95.08125 28.39375Q93.75313 28.39375 92.87813 29.39375Q92.01875 30.378124 92.01875 32.3625ZM101.8625 37.55L101.8625 27.175L103.45625 27.175L103.45625 28.659374Q104.59688 26.940624 106.75313 26.940624Q107.69063 26.940624 108.47188 27.284374Q109.26875 27.6125 109.65938 28.159374Q110.05 28.70625 110.20625 29.45625Q110.3 29.95625 110.3 31.175L110.3 37.55L108.53438 37.55L108.53438 31.2375Q108.53438 30.159374 108.33125 29.628124Q108.12813 29.096874 107.59688 28.784374Q107.08125 28.471874 106.37813 28.471874Q105.25313 28.471874 104.44063 29.190624Q103.62813 29.89375 103.62813 31.878124L103.62813 37.55L101.8625 37.55ZM121.7375 37.55L121.7375 24.925L117.01875 24.925L117.01875 23.2375L128.3625 23.2375L128.3625 24.925L123.62813 24.925L123.62813 37.55L121.7375 37.55ZM129.87813 25.253124L129.87813 23.2375L131.64375 23.2375L131.64375 25.253124L129.87813 25.253124ZM129.87813 37.55L129.87813 27.175L131.64375 27.175L131.64375 37.55L129.87813 37.55ZM133.8625 37.55L133.8625 27.175L135.44063 27.175L135.44063 28.628124Q135.925 27.878124 136.7375 27.409374Q137.55 26.940624 138.58125 26.940624Q139.7375 26.940624 140.47188 27.425Q141.20625 27.89375 141.51875 28.753124Q142.75313 26.940624 144.72188 26.940624Q146.26875 26.940624 147.09688 27.8Q147.925 28.659374 147.925 30.425L147.925 37.55L146.175 37.55L146.175 31.01875Q146.175 29.95625 146.00313 29.503124Q145.83125 29.034374 145.37813 28.753124Q144.94063 28.471874 144.33125 28.471874Q143.2375 28.471874 142.50313 29.20625Q141.78438 29.925 141.78438 31.51875L141.78438 37.55L140.03438 37.55L140.03438 30.815624Q140.03438 29.64375 139.59688 29.065624Q139.175 28.471874 138.19063 28.471874Q137.45625 28.471874 136.81563 28.8625Q136.19063 29.253124 135.90938 30.003124Q135.62813 30.753124 135.62813 32.175L135.62813 37.55L133.8625 37.55ZM156.97188 34.20625L158.78438 34.440624Q158.3625 36.01875 157.19063 36.909374Q156.03438 37.784374 154.22188 37.784374Q151.95625 37.784374 150.6125 36.39375Q149.28438 34.9875 149.28438 32.45625Q149.28438 29.83125 150.62813 28.39375Q151.97188 26.940624 154.12813 26.940624Q156.20625 26.940624 157.51875 28.3625Q158.84688 29.76875 158.84688 32.346874Q158.84688 32.503124 158.83125 32.815624L151.09688 32.815624Q151.19063 34.51875 152.06563 35.425Q152.94063 36.33125 154.2375 36.33125Q155.20625 36.33125 155.87813 35.83125Q156.56563 35.315624 156.97188 34.20625ZM151.19063 31.3625L156.9875 31.3625Q156.87813 30.065624 156.33125 29.409374Q155.4875 28.39375 154.14375 28.39375Q152.94063 28.39375 152.1125 29.20625Q151.28438 30.003124 151.19063 31.3625ZM170.22188 41.753124Q168.76875 39.925 167.76875 37.471874Q166.76875 35.003124 166.76875 32.3625Q166.76875 30.034374 167.51875 27.909374Q168.39375 25.440624 170.22188 22.9875L171.4875 22.9875Q170.3 25.01875 169.925 25.89375Q169.33125 27.2375 168.9875 28.70625Q168.56563 30.534374 168.56563 32.378124Q168.56563 37.065624 171.4875 41.753124L170.22188 41.753124ZM173.15938 34.45625L174.90938 34.175Q175.05 35.221874 175.72188 35.784374Q176.39375 36.33125 177.59688 36.33125Q178.8 36.33125 179.37813 35.846874Q179.97188 35.346874 179.97188 34.690624Q179.97188 34.096874 179.45625 33.753124Q179.09688 33.51875 177.65938 33.159374Q175.72188 32.659374 174.97188 32.315624Q174.2375 31.95625 173.84688 31.33125Q173.45625 30.690624 173.45625 29.925Q173.45625 29.2375 173.76875 28.64375Q174.09688 28.05 174.64375 27.659374Q175.05 27.3625 175.75313 27.159374Q176.47188 26.940624 177.28438 26.940624Q178.50313 26.940624 179.425 27.3Q180.34688 27.64375 180.78438 28.253124Q181.22188 28.846874 181.39375 29.846874L179.675 30.08125Q179.55 29.284374 178.9875 28.846874Q178.425 28.39375 177.40938 28.39375Q176.19063 28.39375 175.675 28.8Q175.15938 29.190624 175.15938 29.721874Q175.15938 30.065624 175.37813 30.346874Q175.58125 30.628124 176.05 30.815624Q176.31563 30.909374 177.59688 31.253124Q179.47188 31.753124 180.20625 32.08125Q180.94063 32.39375 181.3625 33.003124Q181.78438 33.596874 181.78438 34.503124Q181.78438 35.378124 181.26875 36.159374Q180.75313 36.940624 179.78438 37.3625Q178.81563 37.784374 177.59688 37.784374Q175.58125 37.784374 174.51875 36.940624Q173.45625 36.096874 173.15938 34.45625ZM185.01875 41.753124L183.76875 41.753124Q186.675 37.065624 186.675 32.378124Q186.675 30.534374 186.26875 28.7375Q185.925 27.26875 185.33125 25.925Q184.95625 25.034374 183.76875 22.9875L185.01875 22.9875Q186.8625 25.440624 187.7375 27.909374Q188.4875 30.034374 188.4875 32.3625Q188.4875 35.003124 187.47188 37.471874Q186.47188 39.925 185.01875 41.753124ZM199.75313 37.55L195.8 27.175L197.65938 27.175L199.89375 33.39375Q200.25313 34.39375 200.55 35.471874Q200.78438 34.659374 201.20625 33.503124L203.50313 27.175L205.31563 27.175L201.39375 37.55L199.75313 37.55ZM205.15938 34.45625L206.90938 34.175Q207.05 35.221874 207.72188 35.784374Q208.39375 36.33125 209.59688 36.33125Q210.8 36.33125 211.37813 35.846874Q211.97188 35.346874 211.97188 34.690624Q211.97188 34.096874 211.45625 33.753124Q211.09688 33.51875 209.65938 33.159374Q207.72188 32.659374 206.97188 32.315624Q206.2375 31.95625 205.84688 31.33125Q205.45625 30.690624 205.45625 29.925Q205.45625 29.2375 205.76875 28.64375Q206.09688 28.05 206.64375 27.659374Q207.05 27.3625 207.75313 27.159374Q208.47188 26.940624 209.28438 26.940624Q210.50313 26.940624 211.425 27.3Q212.34688 27.64375 212.78438 28.253124Q213.22188 28.846874 213.39375 29.846874L211.675 30.08125Q211.55 29.284374 210.9875 28.846874Q210.425 28.39375 209.40938 28.39375Q208.19063 28.39375 207.675 28.8Q207.15938 29.190624 207.15938 29.721874Q207.15938 30.065624 207.37813 30.346874Q207.58125 30.628124 208.05 30.815624Q208.31563 30.909374 209.59688 31.253124Q211.47188 31.753124 212.20625 32.08125Q212.94063 32.39375 213.3625 33.003124Q213.78438 33.596874 213.78438 34.503124Q213.78438 35.378124 213.26875 36.159374Q212.75313 36.940624 211.78438 37.3625Q210.81563 37.784374 209.59688 37.784374Q207.58125 37.784374 206.51875 36.940624Q205.45625 36.096874 205.15938 34.45625ZM216.3625 37.55L216.3625 35.55L218.3625 35.55L218.3625 37.55L216.3625 37.55ZM227.55 37.8L228.40938 33.628124L226.75313 33.628124L226.75313 32.175L228.70625 32.175L229.425 28.628124L226.75313 28.628124L226.75313 27.175L229.72188 27.175L230.56563 22.9875L232.03438 22.9875L231.175 27.175L234.25313 27.175L235.1125 22.9875L236.58125 22.9875L235.7375 27.175L237.425 27.175L237.425 28.628124L235.44063 28.628124L234.70625 32.175L237.425 32.175L237.425 33.628124L234.40938 33.628124L233.56563 37.8L232.09688 37.8L232.94063 33.628124L229.87813 33.628124L229.01875 37.8L227.55 37.8ZM230.15938 32.175L233.2375 32.175L233.95625 28.628124L230.89375 28.628124L230.15938 32.175ZM244.22188 32.3625Q244.22188 29.4875 245.81563 28.096874Q247.15938 26.940624 249.08125 26.940624Q251.22188 26.940624 252.56563 28.346874Q253.925 29.753124 253.925 32.221874Q253.925 34.221874 253.33125 35.378124Q252.7375 36.51875 251.58125 37.159374Q250.44063 37.784374 249.08125 37.784374Q246.89375 37.784374 245.55 36.39375Q244.22188 34.9875 244.22188 32.3625ZM246.01875 32.3625Q246.01875 34.3625 246.87813 35.346874Q247.75313 36.33125 249.08125 36.33125Q250.39375 36.33125 251.25313 35.346874Q252.12813 34.346874 252.12813 32.3Q252.12813 30.378124 251.25313 29.39375Q250.37813 28.39375 249.08125 28.39375Q247.75313 28.39375 246.87813 29.39375Q246.01875 30.378124 246.01875 32.3625ZM256.28436 37.55L256.28436 28.55L254.7375 28.55L254.7375 27.175L256.28436 27.175L256.28436 26.08125Q256.28436 25.034374 256.47186 24.51875Q256.72186 23.83125 257.3625 23.409374Q258.0031 22.9875 259.15936 22.9875Q259.90936 22.9875 260.8 23.159374L260.53436 24.690624Q259.9875 24.596874 259.5031 24.596874Q258.70624 24.596874 258.3625 24.940624Q258.03436 25.284374 258.03436 26.221874L258.03436 27.175L260.0656 27.175L260.0656 28.55L258.03436 28.55L258.03436 37.55L256.28436 37.55ZM267.45624 32.95625L269.2375 32.8Q269.3625 33.8625 269.8156 34.55Q270.28436 35.2375 271.2531 35.675Q272.2375 36.096874 273.47186 36.096874Q274.55 36.096874 275.3781 35.784374Q276.20624 35.45625 276.6125 34.89375Q277.01874 34.33125 277.01874 33.659374Q277.01874 32.9875 276.6281 32.4875Q276.2375 31.9875 275.34686 31.64375Q274.76874 31.409374 272.78436 30.940624Q270.8156 30.471874 270.03436 30.05Q269.0031 29.51875 268.5031 28.721874Q268.0031 27.925 268.0031 26.940624Q268.0031 25.846874 268.6125 24.909374Q269.22186 23.971874 270.40936 23.4875Q271.59686 22.9875 273.03436 22.9875Q274.6281 22.9875 275.84686 23.503124Q277.0656 24.01875 277.70624 25.01875Q278.3625 26.003124 278.40936 27.26875L276.59686 27.409374Q276.45624 26.05 275.6125 25.3625Q274.76874 24.659374 273.1125 24.659374Q271.39374 24.659374 270.59686 25.3Q269.8156 25.925 269.8156 26.8Q269.8156 27.58125 270.3781 28.08125Q270.925 28.58125 273.2375 29.096874Q275.55 29.6125 276.40936 30.003124Q277.65936 30.58125 278.2531 31.471874Q278.84686 32.346874 278.84686 33.503124Q278.84686 34.64375 278.1906 35.659374Q277.53436 36.675 276.3 37.2375Q275.08124 37.8 273.55 37.8Q271.6125 37.8 270.3 37.2375Q268.9875 36.659374 268.2375 35.51875Q267.4875 34.378124 267.45624 32.95625ZM280.78436 41.55L280.59686 39.89375Q281.175 40.05 281.59686 40.05Q282.1906 40.05 282.53436 39.846874Q282.89374 39.659374 283.1125 39.315624Q283.28436 39.05 283.65936 38.003124Q283.70624 37.846874 283.8156 37.565624L279.8781 27.175L281.76874 27.175L283.925 33.190624Q284.34686 34.33125 284.675 35.58125Q284.9875 34.378124 285.39374 33.221874L287.6125 27.175L289.3781 27.175L285.425 37.721874Q284.8 39.440624 284.4406 40.08125Q283.97186 40.95625 283.3625 41.346874Q282.76874 41.753124 281.925 41.753124Q281.40936 41.753124 280.78436 41.55ZM290.8625 37.55L290.8625 27.175L292.4406 27.175L292.4406 28.628124Q292.925 27.878124 293.7375 27.409374Q294.55 26.940624 295.58124 26.940624Q296.7375 26.940624 297.47186 27.425Q298.20624 27.89375 298.51874 28.753124Q299.7531 26.940624 301.72186 26.940624Q303.26874 26.940624 304.09686 27.8Q304.925 28.659374 304.925 30.425L304.925 37.55L303.175 37.55L303.175 31.01875Q303.175 29.95625 303.0031 29.503124Q302.83124 29.034374 302.3781 28.753124Q301.9406 28.471874 301.33124 28.471874Q300.2375 28.471874 299.5031 29.20625Q298.78436 29.925 298.78436 31.51875L298.78436 37.55L297.03436 37.55L297.03436 30.815624Q297.03436 29.64375 296.59686 29.065624Q296.175 28.471874 295.1906 28.471874Q294.45624 28.471874 293.8156 28.8625Q293.1906 29.253124 292.90936 30.003124Q292.6281 30.753124 292.6281 32.175L292.6281 37.55L290.8625 37.55ZM308.4875 37.55L306.8625 37.55L306.8625 23.2375L308.6125 23.2375L308.6125 28.346874Q309.7375 26.940624 311.45624 26.940624Q312.40936 26.940624 313.26874 27.33125Q314.1281 27.721874 314.675 28.425Q315.22186 29.1125 315.53436 30.096874Q315.84686 31.08125 315.84686 32.20625Q315.84686 34.878124 314.53436 36.33125Q313.22186 37.784374 311.3781 37.784374Q309.53436 37.784374 308.4875 36.253124L308.4875 37.55ZM308.47186 32.284374Q308.47186 34.14375 308.97186 34.9875Q309.8156 36.33125 311.22186 36.33125Q312.3781 36.33125 313.20624 35.33125Q314.05 34.33125 314.05 32.346874Q314.05 30.315624 313.2375 29.3625Q312.4406 28.39375 311.3 28.39375Q310.14374 28.39375 309.3 29.39375Q308.47186 30.39375 308.47186 32.284374ZM317.22186 32.3625Q317.22186 29.4875 318.8156 28.096874Q320.15936 26.940624 322.08124 26.940624Q324.22186 26.940624 325.5656 28.346874Q326.925 29.753124 326.925 32.221874Q326.925 34.221874 326.33124 35.378124Q325.7375 36.51875 324.58124 37.159374Q323.4406 37.784374 322.08124 37.784374Q319.89374 37.784374 318.55 36.39375Q317.22186 34.9875 317.22186 32.3625ZM319.01874 32.3625Q319.01874 34.3625 319.8781 35.346874Q320.7531 36.33125 322.08124 36.33125Q323.39374 36.33125 324.2531 35.346874Q325.1281 34.346874 325.1281 32.3Q325.1281 30.378124 324.2531 29.39375Q323.3781 28.39375 322.08124 28.39375Q320.7531 28.39375 319.8781 29.39375Q319.01874 30.378124 319.01874 32.3625ZM328.83124 37.55L328.83124 23.2375L330.58124 23.2375L330.58124 37.55L328.83124 37.55ZM332.15936 34.45625L333.90936 34.175Q334.05 35.221874 334.72186 35.784374Q335.39374 36.33125 336.59686 36.33125Q337.8 36.33125 338.3781 35.846874Q338.97186 35.346874 338.97186 34.690624Q338.97186 34.096874 338.45624 33.753124Q338.09686 33.51875 336.65936 33.159374Q334.72186 32.659374 333.97186 32.315624Q333.2375 31.95625 332.84686 31.33125Q332.45624 30.690624 332.45624 29.925Q332.45624 29.2375 332.76874 28.64375Q333.09686 28.05 333.64374 27.659374Q334.05 27.3625 334.7531 27.159374Q335.47186 26.940624 336.28436 26.940624Q337.5031 26.940624 338.425 27.3Q339.34686 27.64375 339.78436 28.253124Q340.22186 28.846874 340.39374 29.846874L338.675 30.08125Q338.55 29.284374 337.9875 28.846874Q337.425 28.39375 336.40936 28.39375Q335.1906 28.39375 334.675 28.8Q334.15936 29.190624 334.15936 29.721874Q334.15936 30.065624 334.3781 30.346874Q334.58124 30.628124 335.05 30.815624Q335.3156 30.909374 336.59686 31.253124Q338.47186 31.753124 339.20624 32.08125Q339.9406 32.39375 340.3625 33.003124Q340.78436 33.596874 340.78436 34.503124Q340.78436 35.378124 340.26874 36.159374Q339.7531 36.940624 338.78436 37.3625Q337.8156 37.784374 336.59686 37.784374Q334.58124 37.784374 333.51874 36.940624Q332.45624 36.096874 332.15936 34.45625Z" fill-rule="nonzero"/></svg>