<?xml version="1.0" encoding="UTF-8" standalone="no"?><!DOCTYPE svg PUBLIC "-//W3C//DTD SVG 1.1//EN" "http://www.w3.org/Graphics/SVG/1.1/DTD/svg11.dtd"><!-- Generated by graphviz version 2.40.1 (20161225.0304)
 --><!-- Title: G Pages: 1 --><svg xmlns="http://www.w3.org/2000/svg" xmlns:xlink="http://www.w3.org/1999/xlink" width="2095pt" height="548pt" viewBox="0.00 0.00 2094.71 548.00">
<g id="graph0" class="graph" transform="scale(1 1) rotate(0) translate(4 544)">
<title>G</title>
<polygon fill="#ffffff" stroke="transparent" points="-4,4 -4,-544 2090.7069,-544 2090.7069,4 -4,4"/>
<!-- /nix/store/2msg7r8gd7ydwmr33a9nrrjnar7wywxh&#45;minimal&#45;shell -->
<g id="node1" class="node">
<title>/nix/store/2msg7r8gd7ydwmr33a9nrrjnar7wywxh-minimal-shell</title>
<polygon fill="#ff0000" stroke="#000000" points="1122.7356,-36 1029.1978,-36 1029.1978,0 1122.7356,0 1122.7356,-36"/>
<text text-anchor="middle" x="1075.9667" y="-13.8" font-family="Times,serif" font-size="14.00" fill="#000000">minimal-shell</text>
</g>
<!-- /nix/store/9krlzvny65gdc8s7kpb6lkx8cd02c25b&#45;default&#45;builder.sh -->
<g id="node2" class="node">
<title>/nix/store/9krlzvny65gdc8s7kpb6lkx8cd02c25b-default-builder.sh</title>
<polygon fill="#ff0000" stroke="#000000" points="1014.5994,-108 899.334,-108 899.334,-72 1014.5994,-72 1014.5994,-108"/>
<text text-anchor="middle" x="956.9667" y="-85.8" font-family="Times,serif" font-size="14.00" fill="#000000">default-builder.sh</text>
</g>
<!-- /nix/store/9krlzvny65gdc8s7kpb6lkx8cd02c25b&#45;default&#45;builder.sh&#45;&gt;/nix/store/2msg7r8gd7ydwmr33a9nrrjnar7wywxh&#45;minimal&#45;shell -->
<g id="edge1" class="edge">
<title>/nix/store/9krlzvny65gdc8s7kpb6lkx8cd02c25b-default-builder.sh-&gt;/nix/store/2msg7r8gd7ydwmr33a9nrrjnar7wywxh-minimal-shell</title>
<path fill="none" stroke="#000000" d="M986.9954,-71.8314C1002.2163,-62.6221 1020.8795,-51.3301 1037.175,-41.4706"/>
<polygon fill="#000000" stroke="#000000" points="1039.2036,-44.3341 1045.9476,-36.1628 1035.5799,-38.345 1039.2036,-44.3341"/>
</g>
<!-- /nix/store/b45zavallnsvqwjs9wg9xw167jcs0935&#45;bash&#45;4.4&#45;p23 -->
<g id="node3" class="node">
<title>/nix/store/b45zavallnsvqwjs9wg9xw167jcs0935-bash-4.4-p23</title>
<polygon fill="#ff0000" stroke="#000000" points="2086.9484,-180 1996.985,-180 1996.985,-144 2086.9484,-144 2086.9484,-180"/>
<text text-anchor="middle" x="2041.9667" y="-157.8" font-family="Times,serif" font-size="14.00" fill="#000000">bash-4.4-p23</text>
</g>
<!-- /nix/store/b45zavallnsvqwjs9wg9xw167jcs0935&#45;bash&#45;4.4&#45;p23&#45;&gt;/nix/store/2msg7r8gd7ydwmr33a9nrrjnar7wywxh&#45;minimal&#45;shell -->
<g id="edge2" class="edge">
<title>/nix/store/b45zavallnsvqwjs9wg9xw167jcs0935-bash-4.4-p23-&gt;/nix/store/2msg7r8gd7ydwmr33a9nrrjnar7wywxh-minimal-shell</title>
<path fill="none" stroke="#ff0000" d="M1997.0636,-146.3431C1994.0023,-145.4891 1990.9498,-144.697 1987.9667,-144 1669.5314,-69.6018 1277.587,-33.644 1133.008,-22.2022"/>
<polygon fill="#ff0000" stroke="#ff0000" points="1133.273,-18.7124 1123.0302,-21.4206 1132.7262,-25.691 1133.273,-18.7124"/>
</g>
<!-- /nix/store/g7z2p2g53kkajj54s5x9v72c2llrbf8q&#45;stdenv&#45;linux -->
<g id="node4" class="node">
<title>/nix/store/g7z2p2g53kkajj54s5x9v72c2llrbf8q-stdenv-linux</title>
<polygon fill="#ff0000" stroke="#000000" points="1118.9583,-108 1032.9751,-108 1032.9751,-72 1118.9583,-72 1118.9583,-108"/>
<text text-anchor="middle" x="1075.9667" y="-85.8" font-family="Times,serif" font-size="14.00" fill="#000000">stdenv-linux</text>
</g>
<!-- /nix/store/b45zavallnsvqwjs9wg9xw167jcs0935&#45;bash&#45;4.4&#45;p23&#45;&gt;/nix/store/g7z2p2g53kkajj54s5x9v72c2llrbf8q&#45;stdenv&#45;linux -->
<g id="edge7" class="edge">
<title>/nix/store/b45zavallnsvqwjs9wg9xw167jcs0935-bash-4.4-p23-&gt;/nix/store/g7z2p2g53kkajj54s5x9v72c2llrbf8q-stdenv-linux</title>
<path fill="none" stroke="#000000" d="M1997.1214,-146.0718C1994.0462,-145.2833 1990.9748,-144.5799 1987.9667,-144 1821.6883,-111.9445 1298.2977,-95.795 1129.212,-91.3188"/>
<polygon fill="#000000" stroke="#000000" points="1129.1522,-87.8161 1119.064,-91.053 1128.9688,-94.8137 1129.1522,-87.8161"/>
</g>
<!-- /nix/store/g7z2p2g53kkajj54s5x9v72c2llrbf8q&#45;stdenv&#45;linux&#45;&gt;/nix/store/2msg7r8gd7ydwmr33a9nrrjnar7wywxh&#45;minimal&#45;shell -->
<g id="edge3" class="edge">
<title>/nix/store/g7z2p2g53kkajj54s5x9v72c2llrbf8q-stdenv-linux-&gt;/nix/store/2msg7r8gd7ydwmr33a9nrrjnar7wywxh-minimal-shell</title>
<path fill="none" stroke="#00ff00" d="M1075.9667,-71.8314C1075.9667,-64.131 1075.9667,-54.9743 1075.9667,-46.4166"/>
<polygon fill="#00ff00" stroke="#00ff00" points="1079.4668,-46.4132 1075.9667,-36.4133 1072.4668,-46.4133 1079.4668,-46.4132"/>
</g>
<!-- /nix/store/j5p0j1w27aqdzncpw73k95byvhh5prw2&#45;glibc&#45;2.33&#45;47 -->
<g id="node5" class="node">
<title>/nix/store/j5p0j1w27aqdzncpw73k95byvhh5prw2-glibc-2.33-47</title>
<polygon fill="#ff0000" stroke="#000000" points="1875.7839,-396 1784.1495,-396 1784.1495,-360 1875.7839,-360 1875.7839,-396"/>
<text text-anchor="middle" x="1829.9667" y="-373.8" font-family="Times,serif" font-size="14.00" fill="#000000">glibc-2.33-47</text>
</g>
<!-- /nix/store/j5p0j1w27aqdzncpw73k95byvhh5prw2&#45;glibc&#45;2.33&#45;47&#45;&gt;/nix/store/b45zavallnsvqwjs9wg9xw167jcs0935&#45;bash&#45;4.4&#45;p23 -->
<g id="edge4" class="edge">
<title>/nix/store/j5p0j1w27aqdzncpw73k95byvhh5prw2-glibc-2.33-47-&gt;/nix/store/b45zavallnsvqwjs9wg9xw167jcs0935-bash-4.4-p23</title>
<path fill="none" stroke="#0000ff" d="M1860.7172,-359.8721C1875.9875,-350.1712 1894.2648,-337.4645 1908.9667,-324 1955.2792,-281.5857 1999.5927,-222.7353 2023.5554,-188.8845"/>
<polygon fill="#0000ff" stroke="#0000ff" points="2026.6026,-190.6351 2029.4788,-180.4381 2020.8715,-186.6159 2026.6026,-190.6351"/>
</g>
<!-- /nix/store/nvlnl2swxmk50x25mzn71rhc0gzpylfr&#45;coreutils&#45;8.32 -->
<g id="node18" class="node">
<title>/nix/store/nvlnl2swxmk50x25mzn71rhc0gzpylfr-coreutils-8.32</title>
<polygon fill="#ff0000" stroke="#000000" points="1819.8342,-180 1726.0992,-180 1726.0992,-144 1819.8342,-144 1819.8342,-180"/>
<text text-anchor="middle" x="1772.9667" y="-157.8" font-family="Times,serif" font-size="14.00" fill="#000000">coreutils-8.32</text>
</g>
<!-- /nix/store/j5p0j1w27aqdzncpw73k95byvhh5prw2&#45;glibc&#45;2.33&#45;47&#45;&gt;/nix/store/nvlnl2swxmk50x25mzn71rhc0gzpylfr&#45;coreutils&#45;8.32 -->
<g id="edge23" class="edge">
<title>/nix/store/j5p0j1w27aqdzncpw73k95byvhh5prw2-glibc-2.33-47-&gt;/nix/store/nvlnl2swxmk50x25mzn71rhc0gzpylfr-coreutils-8.32</title>
<path fill="none" stroke="#ff00ff" d="M1816.1898,-359.5939C1799.5351,-336.0815 1772.4384,-293.4524 1761.9667,-252 1756.81,-231.5873 1760.0443,-207.9374 1764.3092,-190.0049"/>
<polygon fill="#ff00ff" stroke="#ff00ff" points="1767.7359,-190.7353 1766.8838,-180.1748 1760.9643,-188.9617 1767.7359,-190.7353"/>
</g>
<!-- /nix/store/ahlxjqi7zr8kq8ksyb3i09v0mjij3wyv&#45;acl&#45;2.3.1 -->
<g id="node22" class="node">
<title>/nix/store/ahlxjqi7zr8kq8ksyb3i09v0mjij3wyv-acl-2.3.1</title>
<polygon fill="#ff0000" stroke="#000000" points="1835.4471,-252 1770.4863,-252 1770.4863,-216 1835.4471,-216 1835.4471,-252"/>
<text text-anchor="middle" x="1802.9667" y="-229.8" font-family="Times,serif" font-size="14.00" fill="#000000">acl-2.3.1</text>
</g>
<!-- /nix/store/j5p0j1w27aqdzncpw73k95byvhh5prw2&#45;glibc&#45;2.33&#45;47&#45;&gt;/nix/store/ahlxjqi7zr8kq8ksyb3i09v0mjij3wyv&#45;acl&#45;2.3.1 -->
<g id="edge25" class="edge">
<title>/nix/store/j5p0j1w27aqdzncpw73k95byvhh5prw2-glibc-2.33-47-&gt;/nix/store/ahlxjqi7zr8kq8ksyb3i09v0mjij3wyv-acl-2.3.1</title>
<path fill="none" stroke="#000000" d="M1825.1383,-359.5881C1822.5104,-349.1867 1819.3243,-335.919 1816.9667,-324 1812.8819,-303.3492 1809.2596,-279.8382 1806.7233,-262.0261"/>
<polygon fill="#000000" stroke="#000000" points="1810.1736,-261.4261 1805.3252,-252.0057 1803.2408,-262.3935 1810.1736,-261.4261"/>
</g>
<!-- /nix/store/yzck63na53w82lxzdagc2nhd3iyiq6rj&#45;attr&#45;2.4.48 -->
<g id="node23" class="node">
<title>/nix/store/yzck63na53w82lxzdagc2nhd3iyiq6rj-attr-2.4.48</title>
<polygon fill="#ff0000" stroke="#000000" points="1900.2844,-324 1825.649,-324 1825.649,-288 1900.2844,-288 1900.2844,-324"/>
<text text-anchor="middle" x="1862.9667" y="-301.8" font-family="Times,serif" font-size="14.00" fill="#000000">attr-2.4.48</text>
</g>
<!-- /nix/store/j5p0j1w27aqdzncpw73k95byvhh5prw2&#45;glibc&#45;2.33&#45;47&#45;&gt;/nix/store/yzck63na53w82lxzdagc2nhd3iyiq6rj&#45;attr&#45;2.4.48 -->
<g id="edge27" class="edge">
<title>/nix/store/j5p0j1w27aqdzncpw73k95byvhh5prw2-glibc-2.33-47-&gt;/nix/store/yzck63na53w82lxzdagc2nhd3iyiq6rj-attr-2.4.48</title>
<path fill="none" stroke="#00ff00" d="M1838.294,-359.8314C1841.9397,-351.8771 1846.2976,-342.369 1850.3294,-333.5723"/>
<polygon fill="#00ff00" stroke="#00ff00" points="1853.5424,-334.9622 1854.5273,-324.4133 1847.179,-332.0456 1853.5424,-334.9622"/>
</g>
<!-- /nix/store/1i5y55x4b4m9qkx5dqbmr1r6bvrqbanw&#45;multiple&#45;outputs.sh -->
<g id="node6" class="node">
<title>/nix/store/1i5y55x4b4m9qkx5dqbmr1r6bvrqbanw-multiple-outputs.sh</title>
<polygon fill="#ff0000" stroke="#000000" points="1708.4663,-180 1583.4671,-180 1583.4671,-144 1708.4663,-144 1708.4663,-180"/>
<text text-anchor="middle" x="1645.9667" y="-157.8" font-family="Times,serif" font-size="14.00" fill="#000000">multiple-outputs.sh</text>
</g>
<!-- /nix/store/1i5y55x4b4m9qkx5dqbmr1r6bvrqbanw&#45;multiple&#45;outputs.sh&#45;&gt;/nix/store/g7z2p2g53kkajj54s5x9v72c2llrbf8q&#45;stdenv&#45;linux -->
<g id="edge5" class="edge">
<title>/nix/store/1i5y55x4b4m9qkx5dqbmr1r6bvrqbanw-multiple-outputs.sh-&gt;/nix/store/g7z2p2g53kkajj54s5x9v72c2llrbf8q-stdenv-linux</title>
<path fill="none" stroke="#ff00ff" d="M1583.6386,-145.863C1580.3763,-145.1923 1577.1378,-144.5656 1573.9667,-144 1413.4205,-115.3664 1220.8648,-99.7068 1129.339,-93.3779"/>
<polygon fill="#ff00ff" stroke="#ff00ff" points="1129.4297,-89.8761 1119.2147,-92.6876 1128.9534,-96.8598 1129.4297,-89.8761"/>
</g>
<!-- /nix/store/8zxndz5ag0p6s526c2xyllhk1nrn4c3i&#45;audit&#45;tmpdir.sh -->
<g id="node7" class="node">
<title>/nix/store/8zxndz5ag0p6s526c2xyllhk1nrn4c3i-audit-tmpdir.sh</title>
<polygon fill="#ff0000" stroke="#000000" points="101.9001,-180 .0333,-180 .0333,-144 101.9001,-144 101.9001,-180"/>
<text text-anchor="middle" x="50.9667" y="-157.8" font-family="Times,serif" font-size="14.00" fill="#000000">audit-tmpdir.sh</text>
</g>
<!-- /nix/store/8zxndz5ag0p6s526c2xyllhk1nrn4c3i&#45;audit&#45;tmpdir.sh&#45;&gt;/nix/store/g7z2p2g53kkajj54s5x9v72c2llrbf8q&#45;stdenv&#45;linux -->
<g id="edge6" class="edge">
<title>/nix/store/8zxndz5ag0p6s526c2xyllhk1nrn4c3i-audit-tmpdir.sh-&gt;/nix/store/g7z2p2g53kkajj54s5x9v72c2llrbf8q-stdenv-linux</title>
<path fill="none" stroke="#deb887" d="M102.1526,-145.7192C105.1177,-145.0653 108.0705,-144.4836 110.9667,-144 508.1906,-77.6798 623.0004,-181.4795 1022.7165,-107.8862"/>
<polygon fill="#deb887" stroke="#deb887" points="1023.6263,-111.2769 1032.8139,-106.0007 1022.3414,-104.3958 1023.6263,-111.2769"/>
</g>
<!-- /nix/store/bnj8d7mvbkg3vdb07yz74yhl3g107qq5&#45;patch&#45;shebangs.sh -->
<g id="node8" class="node">
<title>/nix/store/bnj8d7mvbkg3vdb07yz74yhl3g107qq5-patch-shebangs.sh</title>
<polygon fill="#ff0000" stroke="#000000" points="238.2104,-180 119.723,-180 119.723,-144 238.2104,-144 238.2104,-180"/>
<text text-anchor="middle" x="178.9667" y="-157.8" font-family="Times,serif" font-size="14.00" fill="#000000">patch-shebangs.sh</text>
</g>
<!-- /nix/store/bnj8d7mvbkg3vdb07yz74yhl3g107qq5&#45;patch&#45;shebangs.sh&#45;&gt;/nix/store/g7z2p2g53kkajj54s5x9v72c2llrbf8q&#45;stdenv&#45;linux -->
<g id="edge8" class="edge">
<title>/nix/store/bnj8d7mvbkg3vdb07yz74yhl3g107qq5-patch-shebangs.sh-&gt;/nix/store/g7z2p2g53kkajj54s5x9v72c2llrbf8q-stdenv-linux</title>
<path fill="none" stroke="#ff0000" d="M238.1482,-145.5422C241.1184,-144.9654 244.0698,-144.4453 246.9667,-144 585.4032,-91.9725 682.6224,-171.6673 1022.9276,-107.8577"/>
<polygon fill="#ff0000" stroke="#ff0000" points="1023.64,-111.285 1032.8095,-105.9775 1022.3315,-104.4084 1023.64,-111.285"/>
</g>
<!-- /nix/store/c8n9kcdddp9np665xz6ri61b383nxvz8&#45;move&#45;systemd&#45;user&#45;units.sh -->
<g id="node9" class="node">
<title>/nix/store/c8n9kcdddp9np665xz6ri61b383nxvz8-move-systemd-user-units.sh</title>
<polygon fill="#ff0000" stroke="#000000" points="429.9295,-180 256.0039,-180 256.0039,-144 429.9295,-144 429.9295,-180"/>
<text text-anchor="middle" x="342.9667" y="-157.8" font-family="Times,serif" font-size="14.00" fill="#000000">move-systemd-user-units.sh</text>
</g>
<!-- /nix/store/c8n9kcdddp9np665xz6ri61b383nxvz8&#45;move&#45;systemd&#45;user&#45;units.sh&#45;&gt;/nix/store/g7z2p2g53kkajj54s5x9v72c2llrbf8q&#45;stdenv&#45;linux -->
<g id="edge9" class="edge">
<title>/nix/store/c8n9kcdddp9np665xz6ri61b383nxvz8-move-systemd-user-units.sh-&gt;/nix/store/g7z2p2g53kkajj54s5x9v72c2llrbf8q-stdenv-linux</title>
<path fill="none" stroke="#00ff00" d="M429.7554,-145.2287C432.8599,-144.7876 435.9376,-144.3757 438.9667,-144 694.1957,-112.3427 766.6969,-157.8915 1022.8272,-107.9025"/>
<polygon fill="#00ff00" stroke="#00ff00" points="1023.6706,-111.3035 1032.7995,-105.9264 1022.3099,-104.4371 1023.6706,-111.3035"/>
</g>
<!-- /nix/store/cickvswrvann041nqxb0rxilc46svw1n&#45;prune&#45;libtool&#45;files.sh -->
<g id="node10" class="node">
<title>/nix/store/cickvswrvann041nqxb0rxilc46svw1n-prune-libtool-files.sh</title>
<polygon fill="#ff0000" stroke="#000000" points="581.7712,-180 448.1622,-180 448.1622,-144 581.7712,-144 581.7712,-180"/>
<text text-anchor="middle" x="514.9667" y="-157.8" font-family="Times,serif" font-size="14.00" fill="#000000">prune-libtool-files.sh</text>
</g>
<!-- /nix/store/cickvswrvann041nqxb0rxilc46svw1n&#45;prune&#45;libtool&#45;files.sh&#45;&gt;/nix/store/g7z2p2g53kkajj54s5x9v72c2llrbf8q&#45;stdenv&#45;linux -->
<g id="edge10" class="edge">
<title>/nix/store/cickvswrvann041nqxb0rxilc46svw1n-prune-libtool-files.sh-&gt;/nix/store/g7z2p2g53kkajj54s5x9v72c2llrbf8q-stdenv-linux</title>
<path fill="none" stroke="#0000ff" d="M581.995,-145.5506C585.0197,-144.9897 588.0207,-144.4686 590.9667,-144 778.418,-114.1811 833.1609,-146.7447 1022.7707,-107.9435"/>
<polygon fill="#0000ff" stroke="#0000ff" points="1023.7103,-111.3229 1032.7846,-105.8542 1022.2806,-104.4705 1023.7103,-111.3229"/>
</g>
<!-- /nix/store/cl3qd985p1yxyfkj96v0hqxiy3w69xq5&#45;compress&#45;man&#45;pages.sh -->
<g id="node11" class="node">
<title>/nix/store/cl3qd985p1yxyfkj96v0hqxiy3w69xq5-compress-man-pages.sh</title>
<polygon fill="#ff0000" stroke="#000000" points="750.0811,-180 599.8523,-180 599.8523,-144 750.0811,-144 750.0811,-180"/>
<text text-anchor="middle" x="674.9667" y="-157.8" font-family="Times,serif" font-size="14.00" fill="#000000">compress-man-pages.sh</text>
</g>
<!-- /nix/store/cl3qd985p1yxyfkj96v0hqxiy3w69xq5&#45;compress&#45;man&#45;pages.sh&#45;&gt;/nix/store/g7z2p2g53kkajj54s5x9v72c2llrbf8q&#45;stdenv&#45;linux -->
<g id="edge11" class="edge">
<title>/nix/store/cl3qd985p1yxyfkj96v0hqxiy3w69xq5-compress-man-pages.sh-&gt;/nix/store/g7z2p2g53kkajj54s5x9v72c2llrbf8q-stdenv-linux</title>
<path fill="none" stroke="#ff00ff" d="M750.47,-145.5374C753.3355,-145.0026 756.1753,-144.488 758.9667,-144 872.8494,-124.0926 906.5203,-134.9412 1022.7441,-108.0397"/>
<polygon fill="#ff00ff" stroke="#ff00ff" points="1023.8165,-111.3828 1032.7455,-105.6798 1022.2089,-104.5699 1023.8165,-111.3828"/>
</g>
<!-- /nix/store/fyaryjvghbkpfnsyw97hb3lyb37s1pd6&#45;move&#45;lib64.sh -->
<g id="node12" class="node">
<title>/nix/store/fyaryjvghbkpfnsyw97hb3lyb37s1pd6-move-lib64.sh</title>
<polygon fill="#ff0000" stroke="#000000" points="864.4596,-180 767.4738,-180 767.4738,-144 864.4596,-144 864.4596,-180"/>
<text text-anchor="middle" x="815.9667" y="-157.8" font-family="Times,serif" font-size="14.00" fill="#000000">move-lib64.sh</text>
</g>
<!-- /nix/store/fyaryjvghbkpfnsyw97hb3lyb37s1pd6&#45;move&#45;lib64.sh&#45;&gt;/nix/store/g7z2p2g53kkajj54s5x9v72c2llrbf8q&#45;stdenv&#45;linux -->
<g id="edge12" class="edge">
<title>/nix/store/fyaryjvghbkpfnsyw97hb3lyb37s1pd6-move-lib64.sh-&gt;/nix/store/g7z2p2g53kkajj54s5x9v72c2llrbf8q-stdenv-linux</title>
<path fill="none" stroke="#deb887" d="M864.3178,-146.7353C867.5764,-145.7866 870.8152,-144.8662 873.9667,-144 937.1051,-126.646 956.439,-127.1494 1023.1967,-108.0809"/>
<polygon fill="#deb887" stroke="#deb887" points="1024.3105,-111.4022 1032.9407,-105.2564 1022.3616,-104.6789 1024.3105,-111.4022"/>
</g>
<!-- /nix/store/h54dzwd7rdh2jlcv91424csl6d0ccgjy&#45;strip.sh -->
<g id="node13" class="node">
<title>/nix/store/h54dzwd7rdh2jlcv91424csl6d0ccgjy-strip.sh</title>
<polygon fill="#ff0000" stroke="#000000" points="939.298,-180 882.6354,-180 882.6354,-144 939.298,-144 939.298,-180"/>
<text text-anchor="middle" x="910.9667" y="-157.8" font-family="Times,serif" font-size="14.00" fill="#000000">strip.sh</text>
</g>
<!-- /nix/store/h54dzwd7rdh2jlcv91424csl6d0ccgjy&#45;strip.sh&#45;&gt;/nix/store/g7z2p2g53kkajj54s5x9v72c2llrbf8q&#45;stdenv&#45;linux -->
<g id="edge13" class="edge">
<title>/nix/store/h54dzwd7rdh2jlcv91424csl6d0ccgjy-strip.sh-&gt;/nix/store/g7z2p2g53kkajj54s5x9v72c2llrbf8q-stdenv-linux</title>
<path fill="none" stroke="#000000" d="M939.5783,-147.8936C942.4031,-146.5573 945.2346,-145.2398 947.9667,-144 972.5788,-132.8313 1000.1702,-121.0934 1023.4165,-111.4247"/>
<polygon fill="#000000" stroke="#000000" points="1024.8604,-114.615 1032.7584,-107.553 1022.1803,-108.1484 1024.8604,-114.615"/>
</g>
<!-- /nix/store/kd4xwxjpjxi71jkm6ka0np72if9rm3y0&#45;move&#45;sbin.sh -->
<g id="node14" class="node">
<title>/nix/store/kd4xwxjpjxi71jkm6ka0np72if9rm3y0-move-sbin.sh</title>
<polygon fill="#ff0000" stroke="#000000" points="1048.5123,-180 957.4211,-180 957.4211,-144 1048.5123,-144 1048.5123,-180"/>
<text text-anchor="middle" x="1002.9667" y="-157.8" font-family="Times,serif" font-size="14.00" fill="#000000">move-sbin.sh</text>
</g>
<!-- /nix/store/kd4xwxjpjxi71jkm6ka0np72if9rm3y0&#45;move&#45;sbin.sh&#45;&gt;/nix/store/g7z2p2g53kkajj54s5x9v72c2llrbf8q&#45;stdenv&#45;linux -->
<g id="edge14" class="edge">
<title>/nix/store/kd4xwxjpjxi71jkm6ka0np72if9rm3y0-move-sbin.sh-&gt;/nix/store/g7z2p2g53kkajj54s5x9v72c2llrbf8q-stdenv-linux</title>
<path fill="none" stroke="#ff0000" d="M1021.3877,-143.8314C1030.1196,-135.219 1040.6984,-124.7851 1050.209,-115.4048"/>
<polygon fill="#ff0000" stroke="#ff0000" points="1052.8897,-117.6769 1057.5516,-108.1628 1047.9742,-112.6931 1052.8897,-117.6769"/>
</g>
<!-- /nix/store/kxw6q8v6isaqjm702d71n2421cxamq68&#45;make&#45;symlinks&#45;relative.sh -->
<g id="node15" class="node">
<title>/nix/store/kxw6q8v6isaqjm702d71n2421cxamq68-make-symlinks-relative.sh</title>
<polygon fill="#ff0000" stroke="#000000" points="1231.0895,-180 1066.8439,-180 1066.8439,-144 1231.0895,-144 1231.0895,-180"/>
<text text-anchor="middle" x="1148.9667" y="-157.8" font-family="Times,serif" font-size="14.00" fill="#000000">make-symlinks-relative.sh</text>
</g>
<!-- /nix/store/kxw6q8v6isaqjm702d71n2421cxamq68&#45;make&#45;symlinks&#45;relative.sh&#45;&gt;/nix/store/g7z2p2g53kkajj54s5x9v72c2llrbf8q&#45;stdenv&#45;linux -->
<g id="edge15" class="edge">
<title>/nix/store/kxw6q8v6isaqjm702d71n2421cxamq68-make-symlinks-relative.sh-&gt;/nix/store/g7z2p2g53kkajj54s5x9v72c2llrbf8q-stdenv-linux</title>
<path fill="none" stroke="#00ff00" d="M1130.5457,-143.8314C1121.8138,-135.219 1111.235,-124.7851 1101.7244,-115.4048"/>
<polygon fill="#00ff00" stroke="#00ff00" points="1103.9592,-112.6931 1094.3818,-108.1628 1099.0437,-117.6769 1103.9592,-112.6931"/>
</g>
<!-- /nix/store/mjjy30kxz775bhhi6j9phw81qh6dsbrf&#45;move&#45;docs.sh -->
<g id="node16" class="node">
<title>/nix/store/mjjy30kxz775bhhi6j9phw81qh6dsbrf-move-docs.sh</title>
<polygon fill="#ff0000" stroke="#000000" points="1342.837,-180 1249.0964,-180 1249.0964,-144 1342.837,-144 1342.837,-180"/>
<text text-anchor="middle" x="1295.9667" y="-157.8" font-family="Times,serif" font-size="14.00" fill="#000000">move-docs.sh</text>
</g>
<!-- /nix/store/mjjy30kxz775bhhi6j9phw81qh6dsbrf&#45;move&#45;docs.sh&#45;&gt;/nix/store/g7z2p2g53kkajj54s5x9v72c2llrbf8q&#45;stdenv&#45;linux -->
<g id="edge16" class="edge">
<title>/nix/store/mjjy30kxz775bhhi6j9phw81qh6dsbrf-move-docs.sh-&gt;/nix/store/g7z2p2g53kkajj54s5x9v72c2llrbf8q-stdenv-linux</title>
<path fill="none" stroke="#0000ff" d="M1249.041,-146.6425C1213.709,-135.0793 1165.2642,-119.2246 1128.613,-107.2297"/>
<polygon fill="#0000ff" stroke="#0000ff" points="1129.6804,-103.8964 1119.0877,-104.1123 1127.503,-110.5492 1129.6804,-103.8964"/>
</g>
<!-- /nix/store/ngg1cv31c8c7bcm2n8ww4g06nq7s4zhm&#45;set&#45;source&#45;date&#45;epoch&#45;to&#45;latest.sh -->
<g id="node17" class="node">
<title>/nix/store/ngg1cv31c8c7bcm2n8ww4g06nq7s4zhm-set-source-date-epoch-to-latest.sh</title>
<polygon fill="#ff0000" stroke="#000000" points="1564.9843,-180 1360.9491,-180 1360.9491,-144 1564.9843,-144 1564.9843,-180"/>
<text text-anchor="middle" x="1462.9667" y="-157.8" font-family="Times,serif" font-size="14.00" fill="#000000">set-source-date-epoch-to-latest.sh</text>
</g>
<!-- /nix/store/ngg1cv31c8c7bcm2n8ww4g06nq7s4zhm&#45;set&#45;source&#45;date&#45;epoch&#45;to&#45;latest.sh&#45;&gt;/nix/store/g7z2p2g53kkajj54s5x9v72c2llrbf8q&#45;stdenv&#45;linux -->
<g id="edge17" class="edge">
<title>/nix/store/ngg1cv31c8c7bcm2n8ww4g06nq7s4zhm-set-source-date-epoch-to-latest.sh-&gt;/nix/store/g7z2p2g53kkajj54s5x9v72c2llrbf8q-stdenv-linux</title>
<path fill="none" stroke="#ff00ff" d="M1365.8098,-143.9243C1290.8837,-129.9846 1190.0832,-111.231 1129.2385,-99.911"/>
<polygon fill="#ff00ff" stroke="#ff00ff" points="1129.5641,-96.4116 1119.0926,-98.0234 1128.2837,-103.2935 1129.5641,-96.4116"/>
</g>
<!-- /nix/store/nvlnl2swxmk50x25mzn71rhc0gzpylfr&#45;coreutils&#45;8.32&#45;&gt;/nix/store/g7z2p2g53kkajj54s5x9v72c2llrbf8q&#45;stdenv&#45;linux -->
<g id="edge18" class="edge">
<title>/nix/store/nvlnl2swxmk50x25mzn71rhc0gzpylfr-coreutils-8.32-&gt;/nix/store/g7z2p2g53kkajj54s5x9v72c2llrbf8q-stdenv-linux</title>
<path fill="none" stroke="#deb887" d="M1726.1173,-146.0893C1723.0398,-145.3087 1719.9708,-144.6012 1716.9667,-144 1604.8824,-121.5684 1262.1862,-100.4826 1129.3567,-92.9333"/>
<polygon fill="#deb887" stroke="#deb887" points="1129.2172,-89.42 1119.0356,-92.35 1128.8222,-96.4088 1129.2172,-89.42"/>
</g>
<!-- /nix/store/pr6nzbscdpg94yvr151lrif2kg0csx7b&#45;reproducible&#45;builds.sh -->
<g id="node19" class="node">
<title>/nix/store/pr6nzbscdpg94yvr151lrif2kg0csx7b-reproducible-builds.sh</title>
<polygon fill="#ff0000" stroke="#000000" points="1978.5445,-180 1837.3889,-180 1837.3889,-144 1978.5445,-144 1978.5445,-180"/>
<text text-anchor="middle" x="1907.9667" y="-157.8" font-family="Times,serif" font-size="14.00" fill="#000000">reproducible-builds.sh</text>
</g>
<!-- /nix/store/pr6nzbscdpg94yvr151lrif2kg0csx7b&#45;reproducible&#45;builds.sh&#45;&gt;/nix/store/g7z2p2g53kkajj54s5x9v72c2llrbf8q&#45;stdenv&#45;linux -->
<g id="edge19" class="edge">
<title>/nix/store/pr6nzbscdpg94yvr151lrif2kg0csx7b-reproducible-builds.sh-&gt;/nix/store/g7z2p2g53kkajj54s5x9v72c2llrbf8q-stdenv-linux</title>
<path fill="none" stroke="#000000" d="M1837.0047,-145.2948C1834.2966,-144.8279 1831.6102,-144.3936 1828.9667,-144 1568.5351,-105.2236 1253.1322,-94.0518 1129.4151,-91.039"/>
<polygon fill="#000000" stroke="#000000" points="1129.172,-87.5324 1119.0923,-90.7958 1129.0071,-94.5304 1129.172,-87.5324"/>
</g>
<!-- /nix/store/6qpkxif64n27vkxszdq8n2wm8b82nb9x&#45;libidn2&#45;2.3.1 -->
<g id="node20" class="node">
<title>/nix/store/6qpkxif64n27vkxszdq8n2wm8b82nb9x-libidn2-2.3.1</title>
<polygon fill="#ff0000" stroke="#000000" points="1874.2997,-468 1785.6337,-468 1785.6337,-432 1874.2997,-432 1874.2997,-468"/>
<text text-anchor="middle" x="1829.9667" y="-445.8" font-family="Times,serif" font-size="14.00" fill="#000000">libidn2-2.3.1</text>
</g>
<!-- /nix/store/6qpkxif64n27vkxszdq8n2wm8b82nb9x&#45;libidn2&#45;2.3.1&#45;&gt;/nix/store/j5p0j1w27aqdzncpw73k95byvhh5prw2&#45;glibc&#45;2.33&#45;47 -->
<g id="edge20" class="edge">
<title>/nix/store/6qpkxif64n27vkxszdq8n2wm8b82nb9x-libidn2-2.3.1-&gt;/nix/store/j5p0j1w27aqdzncpw73k95byvhh5prw2-glibc-2.33-47</title>
<path fill="none" stroke="#ff0000" d="M1829.9667,-431.8314C1829.9667,-424.131 1829.9667,-414.9743 1829.9667,-406.4166"/>
<polygon fill="#ff0000" stroke="#ff0000" points="1833.4668,-406.4132 1829.9667,-396.4133 1826.4668,-406.4133 1833.4668,-406.4132"/>
</g>
<!-- /nix/store/9yp4pnhwi8mp5xq2zs49rkg9s4pr4vbz&#45;libunistring&#45;0.9.10 -->
<g id="node21" class="node">
<title>/nix/store/9yp4pnhwi8mp5xq2zs49rkg9s4pr4vbz-libunistring-0.9.10</title>
<polygon fill="#ff0000" stroke="#000000" points="1890.1857,-540 1769.7477,-540 1769.7477,-504 1890.1857,-504 1890.1857,-540"/>
<text text-anchor="middle" x="1829.9667" y="-517.8" font-family="Times,serif" font-size="14.00" fill="#000000">libunistring-0.9.10</text>
</g>
<!-- /nix/store/9yp4pnhwi8mp5xq2zs49rkg9s4pr4vbz&#45;libunistring&#45;0.9.10&#45;&gt;/nix/store/6qpkxif64n27vkxszdq8n2wm8b82nb9x&#45;libidn2&#45;2.3.1 -->
<g id="edge21" class="edge">
<title>/nix/store/9yp4pnhwi8mp5xq2zs49rkg9s4pr4vbz-libunistring-0.9.10-&gt;/nix/store/6qpkxif64n27vkxszdq8n2wm8b82nb9x-libidn2-2.3.1</title>
<path fill="none" stroke="#00ff00" d="M1829.9667,-503.8314C1829.9667,-496.131 1829.9667,-486.9743 1829.9667,-478.4166"/>
<polygon fill="#00ff00" stroke="#00ff00" points="1833.4668,-478.4132 1829.9667,-468.4133 1826.4668,-478.4133 1833.4668,-478.4132"/>
</g>
<!-- /nix/store/ahlxjqi7zr8kq8ksyb3i09v0mjij3wyv&#45;acl&#45;2.3.1&#45;&gt;/nix/store/nvlnl2swxmk50x25mzn71rhc0gzpylfr&#45;coreutils&#45;8.32 -->
<g id="edge22" class="edge">
<title>/nix/store/ahlxjqi7zr8kq8ksyb3i09v0mjij3wyv-acl-2.3.1-&gt;/nix/store/nvlnl2swxmk50x25mzn71rhc0gzpylfr-coreutils-8.32</title>
<path fill="none" stroke="#0000ff" d="M1795.3964,-215.8314C1792.1174,-207.9617 1788.2047,-198.5712 1784.5722,-189.8533"/>
<polygon fill="#0000ff" stroke="#0000ff" points="1787.7159,-188.2979 1780.6389,-180.4133 1781.2543,-190.9902 1787.7159,-188.2979"/>
</g>
<!-- /nix/store/yzck63na53w82lxzdagc2nhd3iyiq6rj&#45;attr&#45;2.4.48&#45;&gt;/nix/store/nvlnl2swxmk50x25mzn71rhc0gzpylfr&#45;coreutils&#45;8.32 -->
<g id="edge24" class="edge">
<title>/nix/store/yzck63na53w82lxzdagc2nhd3iyiq6rj-attr-2.4.48-&gt;/nix/store/nvlnl2swxmk50x25mzn71rhc0gzpylfr-coreutils-8.32</title>
<path fill="none" stroke="#deb887" d="M1862.778,-287.705C1861.7846,-268.4672 1857.8885,-237.9943 1843.9667,-216 1836.5744,-204.3213 1825.7068,-194.2223 1814.6856,-186.0211"/>
<polygon fill="#deb887" stroke="#deb887" points="1816.4789,-183.0037 1806.2827,-180.1247 1812.4581,-188.7338 1816.4789,-183.0037"/>
</g>
<!-- /nix/store/yzck63na53w82lxzdagc2nhd3iyiq6rj&#45;attr&#45;2.4.48&#45;&gt;/nix/store/ahlxjqi7zr8kq8ksyb3i09v0mjij3wyv&#45;acl&#45;2.3.1 -->
<g id="edge26" class="edge">
<title>/nix/store/yzck63na53w82lxzdagc2nhd3iyiq6rj-attr-2.4.48-&gt;/nix/store/ahlxjqi7zr8kq8ksyb3i09v0mjij3wyv-acl-2.3.1</title>
<path fill="none" stroke="#ff0000" d="M1847.8262,-287.8314C1840.845,-279.454 1832.4276,-269.3531 1824.7791,-260.1749"/>
<polygon fill="#ff0000" stroke="#ff0000" points="1827.4018,-257.8548 1818.3111,-252.4133 1822.0242,-262.3362 1827.4018,-257.8548"/>
</g>
</g>
</svg>